<?xml version="1.0" encoding="UTF-8"?>
<svg xmlns="http://www.w3.org/2000/svg" xmlns:xlink="http://www.w3.org/1999/xlink" width="576pt" height="576pt" viewBox="0 0 576 576" version="1.1">
<g id="surface4819">
<rect x="0" y="0" width="576" height="576" style="fill:rgb(100%,100%,100%);fill-opacity:1;stroke:none;"/>
<path style="fill-rule:nonzero;fill:rgb(69.803922%,52.54902%,75.294118%);fill-opacity:1;stroke-width:0.75;stroke-linecap:round;stroke-linejoin:round;stroke:rgb(20%,20%,20%);stroke-opacity:1;stroke-miterlimit:10;" d="M 83.113281 23.507812 L 85.136719 24.601562 L 86.917969 26.109375 L 88.652344 27.671875 L 90.644531 29.808594 L 92.574219 31.121094 L 94.402344 32.582031 L 96.046875 34.238281 L 97.566406 36.011719 L 99.09375 37.777344 L 99.648438 40.539062 L 99.773438 42.871094 L 99.960938 45.199219 L 100.519531 47.449219 L 101.222656 49.675781 L 102.371094 51.710938 L 103.96875 54.15625 L 104.824219 56.328125 L 105.066406 58.636719 L 105.253906 60.964844 L 105.714844 63.257812 L 105.761719 65.59375 L 105.628906 67.925781 L 105.902344 70.824219 L 105.9375 73.164062 L 105.769531 75.492188 L 106.027344 77.816406 L 106.496094 80.09375 L 106.289062 82.398438 L 106.449219 85.308594 L 106.640625 87.632812 L 106.195312 89.914062 L 106.050781 92.242188 L 105.628906 94.542969 L 104.886719 96.761719 L 104.183594 99.582031 L 104.304688 101.914062 L 104.96875 104.152344 L 105.269531 106.472656 L 105.242188 108.796875 L 104.542969 111.007812 L 104.046875 113.289062 L 103.375 116.132812 L 102.597656 118.324219 L 101.875 120.535156 L 101.523438 122.84375 L 101.210938 125.164062 L 101.242188 127.5 L 101.582031 130.398438 L 102.558594 134.945312 L 102.902344 137.234375 L 103.238281 139.5 L 101.871094 141.375 L 99.917969 143.515625 L 97.835938 144.519531 L 95.675781 145.292969 L 93.480469 146.070312 L 91.761719 147.632812 L 90.195312 149.371094 L 88.265625 150.605469 L 85.355469 150.542969 L 83.027344 150.730469 L 80.710938 150.457031 L 78.628906 149.398438 L 76.835938 147.925781 L 75.699219 145.894531 L 74.410156 143.347656 L 72.929688 141.539062 L 70.878906 140.707031 L 68.636719 140.5625 L 67.785156 138.480469 L 67.609375 136.152344 L 67.609375 128.546875 L 67.601562 126.207031 L 67.597656 123.878906 L 67.609375 121.539062 L 67.675781 118.617188 L 67.785156 116.28125 L 67.785156 111.601562 L 67.910156 109.269531 L 68.132812 106.945312 L 68.125 104.625 L 68.261719 101.71875 L 68.226562 99.457031 L 68.3125 97.121094 L 68.316406 94.78125 L 68.488281 92.453125 L 68.488281 90.113281 L 68.492188 87.1875 L 68.664062 84.855469 L 68.492188 82.527344 L 68.488281 80.183594 L 68.488281 77.84375 L 68.457031 75.515625 L 68.488281 72.589844 L 68.488281 70.25 L 68.636719 67.917969 L 69.015625 65.613281 L 69.355469 63.300781 L 69.378906 58.621094 L 70.085938 55.789062 L 70.246094 53.460938 L 70.410156 51.128906 L 70.421875 48.789062 L 70.59375 46.460938 L 70.816406 44.136719 L 70.960938 41.222656 L 71.304688 38.914062 L 72.179688 36.746094 L 73.335938 34.71875 L 74.570312 32.730469 L 75.71875 30.695312 L 77.613281 28.46875 L 79.113281 26.679688 L 80.683594 24.945312 Z M 83.113281 23.507812 "/>
<path style="fill-rule:nonzero;fill:rgb(69.803922%,52.54902%,75.294118%);fill-opacity:1;stroke-width:0.75;stroke-linecap:round;stroke-linejoin:round;stroke:rgb(20%,20%,20%);stroke-opacity:1;stroke-miterlimit:10;" d="M 224.46875 23.507812 L 226.621094 24.441406 L 228.476562 25.96875 L 230.515625 27.246094 L 232.554688 29.378906 L 233.667969 31.515625 L 234.601562 33.734375 L 235.550781 35.941406 L 236.257812 38.242188 L 236.839844 40.574219 L 237.382812 43.519531 L 237.582031 45.917969 L 237.855469 48.308594 L 238.414062 50.648438 L 239.472656 52.808594 L 240.515625 54.980469 L 241.5625 57.789062 L 242.394531 60.050781 L 243.613281 62.125 L 244.539062 64.328125 L 244.757812 66.722656 L 244.964844 69.121094 L 245.300781 71.496094 L 245.746094 74.460938 L 245.691406 76.867188 L 246.058594 79.234375 L 246.269531 81.625 L 246.273438 84.035156 L 246.433594 86.433594 L 246.660156 89.433594 L 246.984375 91.800781 L 247.238281 94.179688 L 247.710938 96.523438 L 248.011719 98.910156 L 248.152344 101.308594 L 248.207031 104.320312 L 248.210938 106.730469 L 248.546875 109.109375 L 248.820312 111.5 L 248.882812 113.773438 L 247.695312 115.867188 L 246.929688 118.117188 L 245.4375 120.617188 L 244.851562 122.953125 L 244.5 125.328125 L 243.832031 127.625 L 243.015625 129.890625 L 242.339844 132.1875 L 241.511719 135.078125 L 241.050781 137.410156 L 240.238281 139.675781 L 239.550781 141.980469 L 238.582031 144.183594 L 237.792969 146.453125 L 236.425781 149.101562 L 234.640625 150.699219 L 232.253906 150.730469 L 229.855469 150.542969 L 227.488281 150.253906 L 225.183594 149.59375 L 222.808594 149.316406 L 219.875 148.671875 L 217.472656 148.683594 L 215.070312 148.796875 L 212.710938 148.402344 L 210.929688 146.890625 L 209.78125 144.78125 L 208.863281 141.917969 L 208.101562 139.636719 L 207.683594 137.269531 L 207.160156 134.917969 L 206.007812 132.816406 L 204.726562 130.777344 L 203.207031 128.191406 L 201.699219 126.324219 L 200.203125 124.441406 L 198.363281 122.90625 L 196.519531 121.386719 L 194.636719 119.890625 L 193.386719 117.339844 L 193.195312 114.945312 L 193.402344 112.546875 L 193.402344 107.730469 L 193.382812 105.328125 L 193.375 102.921875 L 193.390625 99.929688 L 193.402344 97.519531 L 193.582031 95.121094 L 193.992188 92.753906 L 194.230469 90.359375 L 194.679688 88 L 194.960938 85.019531 L 195.363281 82.652344 L 195.804688 80.296875 L 196.230469 77.933594 L 196.625 75.554688 L 196.953125 73.179688 L 197.601562 70.242188 L 198.292969 67.933594 L 198.949219 65.621094 L 199.796875 63.375 L 200.308594 61.027344 L 201.082031 58.769531 L 202.199219 56.640625 L 203.535156 53.945312 L 204.554688 51.765625 L 205.875 49.757812 L 207.148438 47.753906 L 208.253906 45.640625 L 209.582031 43.636719 L 211.140625 41.085938 L 212.0625 38.863281 L 213.304688 36.800781 L 214.648438 34.808594 L 215.671875 32.628906 L 217.117188 30.714844 L 218.695312 28.175781 L 220.179688 26.277344 L 221.703125 24.421875 Z M 224.46875 23.507812 "/>
<path style="fill-rule:nonzero;fill:rgb(69.803922%,52.54902%,75.294118%);fill-opacity:1;stroke-width:0.75;stroke-linecap:round;stroke-linejoin:round;stroke:rgb(20%,20%,20%);stroke-opacity:1;stroke-miterlimit:10;" d="M 345.375 23.507812 L 347.445312 24.6875 L 348.730469 26.71875 L 349.96875 28.792969 L 351.5625 31.363281 L 353.28125 33.074219 L 355.207031 34.546875 L 357.238281 35.859375 L 359.339844 37.058594 L 361.175781 38.640625 L 363.691406 40.316406 L 365.660156 41.722656 L 367.410156 43.359375 L 368.78125 45.355469 L 370.21875 47.304688 L 371.519531 49.347656 L 373.296875 51.789062 L 374.5625 53.855469 L 375.703125 55.988281 L 376.828125 58.132812 L 377.945312 60.277344 L 378.828125 62.53125 L 379.902344 64.703125 L 381.230469 67.417969 L 382.277344 69.59375 L 383.40625 71.738281 L 384.460938 73.917969 L 384.816406 76.175781 L 383.976562 78.445312 L 383.289062 81.355469 L 382.15625 83.496094 L 381.277344 85.753906 L 380.550781 88.0625 L 379.640625 90.308594 L 378.644531 92.511719 L 377.414062 95.269531 L 376.386719 97.464844 L 375.414062 99.683594 L 374.167969 101.757812 L 373.101562 103.933594 L 371.984375 106.082031 L 370.800781 108.199219 L 369.617188 110.984375 L 368.496094 113.132812 L 367.679688 115.398438 L 367.140625 117.757812 L 366.757812 120.148438 L 366.5 122.550781 L 366.515625 125.582031 L 366.964844 127.953125 L 367.382812 130.339844 L 367.621094 132.746094 L 366.992188 135.074219 L 365.925781 137.246094 L 364.457031 139.886719 L 363.074219 141.878906 L 361.777344 143.921875 L 360.292969 145.828125 L 358.773438 147.710938 L 357.050781 149.40625 L 355.027344 150.730469 L 352.160156 150.722656 L 350.121094 149.414062 L 347.894531 148.558594 L 345.472656 148.582031 L 343.089844 148.992188 L 340.847656 148.339844 L 339.207031 145.804688 L 338.117188 143.640625 L 337.007812 141.488281 L 335.660156 139.480469 L 334.34375 137.449219 L 333.285156 135.269531 L 332.054688 132.503906 L 331.273438 130.214844 L 330.472656 127.929688 L 329.585938 125.675781 L 328.796875 123.390625 L 328.390625 121 L 327.773438 118.035156 L 327.332031 115.660156 L 327.082031 113.25 L 326.695312 110.855469 L 326.257812 108.480469 L 326.1875 106.058594 L 326.007812 103.644531 L 325.609375 100.644531 L 325.558594 98.21875 L 325.261719 95.820312 L 325.140625 93.410156 L 325.328125 90.996094 L 325.113281 88.585938 L 325.101562 85.554688 L 325.238281 83.140625 L 325.332031 80.71875 L 325.136719 78.308594 L 325.101562 75.886719 L 325.101562 73.460938 L 325.335938 70.445312 L 325.59375 68.035156 L 325.800781 65.625 L 326.015625 63.214844 L 326.015625 60.789062 L 326.027344 58.367188 L 326.242188 55.953125 L 326.636719 52.960938 L 326.855469 50.550781 L 326.933594 48.128906 L 327.144531 45.71875 L 327.386719 43.308594 L 327.746094 40.925781 L 328.34375 37.964844 L 329.289062 35.757812 L 330.878906 33.933594 L 332.578125 32.207031 L 334.378906 30.585938 L 336.207031 28.996094 L 338.480469 26.996094 L 340.464844 25.617188 L 342.464844 24.257812 Z M 345.375 23.507812 "/>
<path style="fill-rule:nonzero;fill:rgb(69.803922%,52.54902%,75.294118%);fill-opacity:1;stroke-width:0.75;stroke-linecap:round;stroke-linejoin:round;stroke:rgb(20%,20%,20%);stroke-opacity:1;stroke-miterlimit:10;" d="M 486.226562 23.507812 L 488.257812 24.257812 L 490.03125 25.542969 L 491.070312 27.484375 L 492.269531 29.960938 L 492.914062 32.0625 L 493.683594 34.121094 L 494.644531 36.097656 L 495.296875 38.1875 L 496.117188 40.226562 L 497.015625 42.8125 L 497.636719 44.902344 L 498.332031 46.988281 L 499.160156 49.023438 L 500.0625 51.015625 L 500.726562 53.09375 L 502.035156 55.515625 L 503.015625 57.476562 L 504.074219 59.40625 L 505.257812 61.261719 L 506.058594 63.28125 L 506.132812 65.480469 L 506.132812 72.640625 L 505.984375 74.835938 L 506.132812 77.03125 L 506.132812 79.234375 L 506.136719 81.4375 L 506.132812 84.179688 L 506.132812 86.382812 L 505.984375 88.574219 L 505.863281 90.765625 L 506.132812 92.953125 L 506.050781 95.148438 L 505.648438 97.855469 L 505.515625 100.050781 L 505.023438 102.195312 L 504.34375 104.289062 L 503.734375 106.398438 L 503.117188 108.507812 L 502.714844 110.671875 L 502.304688 113.390625 L 501.621094 115.476562 L 501.074219 117.597656 L 500.71875 119.757812 L 500.367188 121.921875 L 500.21875 124.117188 L 500.214844 126.871094 L 500.191406 129.070312 L 500.0625 131.269531 L 500.039062 133.46875 L 499.609375 135.617188 L 499.457031 137.8125 L 499.039062 140.515625 L 498.703125 142.679688 L 497.933594 144.574219 L 495.886719 145.273438 L 493.980469 146.371094 L 492.292969 147.785156 L 490.515625 149.078125 L 487.972656 149.910156 L 485.949219 150.730469 L 484.144531 149.617188 L 483.378906 147.578125 L 483.238281 145.386719 L 482.910156 143.210938 L 481.609375 140.875 L 480.789062 138.875 L 480.542969 136.6875 L 480.253906 134.511719 L 479.769531 132.378906 L 479.449219 130.210938 L 478.800781 127.542969 L 478.125 125.457031 L 477.734375 123.304688 L 477.738281 121.117188 L 477.746094 118.914062 L 477.632812 116.71875 L 477.316406 113.996094 L 477.335938 111.804688 L 477.066406 109.621094 L 476.816406 107.433594 L 476.585938 105.246094 L 476.15625 103.085938 L 475.734375 100.921875 L 475.167969 98.246094 L 475.015625 96.050781 L 474.59375 93.898438 L 474.359375 91.710938 L 473.96875 89.542969 L 473.4375 87.410156 L 472.8125 84.738281 L 472.367188 82.582031 L 471.949219 80.421875 L 471.621094 78.242188 L 471.871094 76.058594 L 472.488281 73.953125 L 472.882812 71.246094 L 472.738281 69.050781 L 472.738281 64.640625 L 473.253906 62.515625 L 473.980469 60.441406 L 474.628906 58.339844 L 475.691406 55.800781 L 476.511719 53.757812 L 476.875 51.601562 L 477.328125 49.453125 L 477.921875 47.339844 L 478.402344 45.191406 L 479.101562 42.558594 L 479.796875 40.484375 L 480.761719 38.507812 L 481.65625 36.496094 L 481.996094 34.339844 L 482.015625 32.152344 L 482.8125 29.53125 L 483.628906 27.496094 L 484.550781 25.496094 Z M 486.226562 23.507812 "/>
<path style="fill-rule:nonzero;fill:rgb(69.803922%,52.54902%,75.294118%);fill-opacity:1;stroke-width:0.75;stroke-linecap:round;stroke-linejoin:round;stroke:rgb(20%,20%,20%);stroke-opacity:1;stroke-miterlimit:10;" d="M 72.609375 157.429688 L 74.785156 158.039062 L 76.875 158.902344 L 79.003906 159.640625 L 81.511719 160.910156 L 83.410156 162.132812 L 85.15625 163.554688 L 86.839844 165.066406 L 88.484375 166.621094 L 90.273438 168 L 92.066406 170.171875 L 93.699219 171.734375 L 95.171875 173.453125 L 96.753906 175.066406 L 98.246094 176.761719 L 99.820312 178.375 L 101.652344 180.476562 L 102.925781 182.253906 L 102.996094 184.5 L 103.246094 186.738281 L 103.394531 188.992188 L 103.582031 191.234375 L 103.929688 193.453125 L 104.089844 196.269531 L 104.554688 198.476562 L 104.507812 200.734375 L 104.640625 202.988281 L 104.652344 205.25 L 104.800781 207.503906 L 104.824219 210.332031 L 105.300781 212.535156 L 105.378906 214.792969 L 105.6875 217.027344 L 106.0625 219.238281 L 106.0625 221.5 L 106.410156 224.296875 L 106.421875 226.558594 L 106.421875 228.820312 L 106.414062 231.085938 L 106.242188 233.335938 L 106.21875 235.601562 L 105.714844 237.789062 L 104.339844 240.246094 L 103.121094 242.152344 L 101.953125 244.089844 L 100.773438 246.019531 L 99.921875 248.113281 L 99.046875 250.199219 L 97.957031 252.804688 L 97.230469 254.9375 L 96.558594 257.097656 L 95.847656 259.242188 L 94.871094 261.277344 L 94.042969 263.378906 L 93.070312 266.011719 L 92.222656 268.097656 L 91.34375 270.175781 L 90.664062 272.304688 L 89.78125 274.367188 L 88.847656 276.425781 L 88.054688 278.542969 L 86.960938 281.140625 L 86.050781 283.210938 L 84.589844 284.652344 L 82.425781 284.082031 L 80.269531 284.003906 L 79.894531 281.804688 L 79.101562 279.105469 L 78.039062 277.132812 L 77.527344 274.960938 L 76.375 273.023438 L 75.636719 270.886719 L 74.6875 268.949219 L 73.816406 266.261719 L 73.160156 264.101562 L 72.375 261.984375 L 71.949219 259.765625 L 71.441406 257.5625 L 70.75 255.4375 L 69.941406 252.769531 L 69.414062 250.609375 L 69.054688 248.382812 L 68.652344 246.171875 L 68.496094 243.921875 L 67.96875 241.722656 L 67.945312 239.480469 L 67.867188 236.660156 L 67.835938 234.402344 L 67.984375 232.148438 L 67.828125 229.894531 L 67.820312 227.632812 L 68.148438 225.394531 L 68.171875 222.566406 L 68.507812 220.335938 L 68.425781 218.089844 L 68.488281 215.832031 L 68.515625 213.570312 L 68.515625 211.308594 L 68.191406 208.515625 L 68.320312 206.261719 L 68.160156 204.007812 L 68.066406 201.75 L 68.160156 199.5 L 68.351562 197.25 L 68.519531 194.996094 L 68.695312 192.179688 L 68.84375 189.925781 L 69.089844 187.675781 L 69.230469 185.421875 L 69.398438 183.167969 L 69.449219 180.910156 L 69.925781 178.125 L 69.992188 175.863281 L 70.28125 173.625 L 70.609375 171.390625 L 70.652344 169.128906 L 71.046875 166.917969 L 71.15625 164.105469 L 71.453125 161.90625 L 71.710938 159.660156 Z M 72.609375 157.429688 "/>
<path style="fill-rule:nonzero;fill:rgb(69.803922%,52.54902%,75.294118%);fill-opacity:1;stroke-width:0.75;stroke-linecap:round;stroke-linejoin:round;stroke:rgb(20%,20%,20%);stroke-opacity:1;stroke-miterlimit:10;" d="M 213.9375 157.429688 L 216.597656 157.863281 L 219.222656 158.371094 L 221.785156 159.128906 L 225.117188 158.738281 L 227.574219 159.75 L 229.890625 161.132812 L 232.449219 161.953125 L 234.792969 163.285156 L 237.070312 164.726562 L 239.675781 166.855469 L 241.550781 168.714844 L 242.617188 171.183594 L 243.746094 173.585938 L 244.59375 176.144531 L 245.105469 178.78125 L 245.449219 182.136719 L 246.273438 184.695312 L 246.554688 187.371094 L 247.632812 189.832031 L 248.304688 192.433594 L 249.664062 194.753906 L 250.890625 197.152344 L 251.980469 200.328125 L 252.421875 202.960938 L 252.59375 205.644531 L 253.171875 208.261719 L 253.664062 213.628906 L 253.808594 216.996094 L 254.433594 219.597656 L 254.738281 222.269531 L 254.921875 224.957031 L 254.921875 227.652344 L 254.925781 230.351562 L 255.828125 233.570312 L 255.832031 236.257812 L 254.972656 238.800781 L 254.6875 241.484375 L 254.902344 244.167969 L 254.921875 246.867188 L 254.921875 249.5625 L 254.683594 252.921875 L 253.925781 255.488281 L 253.671875 258.160156 L 253.625 260.855469 L 253.425781 263.539062 L 253.601562 266.226562 L 253.671875 269.597656 L 253.671875 272.292969 L 253.605469 274.988281 L 253.058594 277.621094 L 251.425781 279.746094 L 249.636719 281.753906 L 247.414062 284.167969 L 244.792969 284.652344 L 242.191406 284.015625 L 239.5 283.90625 L 236.808594 283.757812 L 231.414062 283.757812 L 228.089844 284.183594 L 225.410156 284.078125 L 222.769531 283.539062 L 220.070312 283.507812 L 217.386719 283.746094 L 214.71875 283.445312 L 211.445312 282.628906 L 208.777344 282.28125 L 206.253906 281.347656 L 203.597656 280.941406 L 200.957031 280.515625 L 198.304688 280.222656 L 195.617188 278.210938 L 193.492188 276.648438 L 193.238281 273.980469 L 193.238281 268.585938 L 193.371094 265.898438 L 193.488281 262.53125 L 193.253906 259.847656 L 193.140625 257.15625 L 192.230469 254.625 L 191.964844 251.949219 L 191.242188 249.359375 L 190.273438 246.855469 L 188.957031 243.773438 L 187.375 241.601562 L 186.996094 238.953125 L 186.96875 236.257812 L 186.332031 233.640625 L 186.246094 230.945312 L 186.402344 227.585938 L 186.992188 224.976562 L 187.3125 222.300781 L 188.222656 219.773438 L 189.128906 217.246094 L 189.785156 214.632812 L 190.851562 211.445312 L 191.355469 208.792969 L 191.941406 206.164062 L 192.234375 203.484375 L 192.242188 200.785156 L 192.203125 198.089844 L 192.703125 195.476562 L 194.777344 192.832031 L 196.742188 191.007812 L 198.015625 188.628906 L 199.480469 186.367188 L 200.765625 184 L 201.894531 181.570312 L 202.949219 178.375 L 203.890625 175.863281 L 204.886719 173.359375 L 205.710938 170.796875 L 206.929688 168.394531 L 207.960938 165.980469 L 208.492188 162.710938 L 209.234375 160.167969 L 210.644531 158.105469 Z M 213.9375 157.429688 "/>
<path style="fill-rule:nonzero;fill:rgb(69.803922%,52.54902%,75.294118%);fill-opacity:1;stroke-width:0.75;stroke-linecap:round;stroke-linejoin:round;stroke:rgb(20%,20%,20%);stroke-opacity:1;stroke-miterlimit:10;" d="M 334.285156 157.429688 L 336.601562 158.167969 L 338.816406 159.226562 L 340.835938 160.632812 L 343.449219 162.222656 L 345.320312 163.800781 L 347.289062 165.265625 L 348.882812 167.132812 L 350.984375 168.402344 L 352.527344 170.300781 L 354.730469 172.257812 L 356.515625 173.90625 L 357.910156 175.90625 L 359.816406 177.449219 L 361.300781 179.410156 L 362.882812 181.285156 L 364.875 183.605469 L 366.304688 185.609375 L 367.84375 187.527344 L 369.570312 189.273438 L 371.179688 191.125 L 372.46875 193.21875 L 373.792969 195.289062 L 375.316406 197.949219 L 376.734375 199.949219 L 377.878906 202.125 L 379.363281 204.082031 L 380.234375 206.375 L 381.378906 208.550781 L 382.902344 211.21875 L 383.851562 213.484375 L 384.542969 215.84375 L 384.65625 218.300781 L 384.691406 220.757812 L 384.660156 223.199219 L 384.179688 226.234375 L 383.863281 228.671875 L 383.640625 231.121094 L 383.28125 233.554688 L 382.519531 235.890625 L 381.878906 238.257812 L 381.285156 240.632812 L 380.90625 243.660156 L 380.375 246.054688 L 379.578125 248.375 L 379.46875 250.832031 L 379.019531 253.238281 L 378.464844 255.621094 L 377.523438 258.53125 L 376.890625 260.898438 L 376.21875 263.257812 L 375.457031 265.597656 L 374.996094 268.011719 L 374.402344 270.398438 L 373 273.132812 L 372.082031 275.410156 L 371.394531 277.769531 L 370.597656 280.09375 L 368.730469 281.585938 L 367.261719 283.550781 L 365.121094 284.652344 L 362.117188 284.230469 L 360.039062 282.957031 L 358.136719 281.410156 L 356.058594 280.097656 L 353.90625 278.921875 L 351.902344 277.507812 L 349.03125 276.457031 L 346.90625 275.285156 L 344.488281 275.011719 L 342.039062 274.960938 L 339.75 274.207031 L 338.746094 272.019531 L 338.558594 268.972656 L 337.628906 266.929688 L 335.679688 265.769531 L 334.957031 263.429688 L 333.0625 261.964844 L 330.730469 261.292969 L 328.742188 258.972656 L 327.183594 257.070312 L 325.308594 255.65625 L 325.230469 253.199219 L 325.230469 250.738281 L 325.234375 248.277344 L 325.410156 245.828125 L 325.550781 242.789062 L 325.628906 240.332031 L 325.808594 237.882812 L 325.996094 235.433594 L 326.039062 232.972656 L 326.3125 230.53125 L 326.625 227.480469 L 326.695312 225.023438 L 326.742188 222.574219 L 326.625 220.121094 L 326.625 215.199219 L 326.855469 212.136719 L 327.023438 209.6875 L 327.023438 207.226562 L 327.320312 204.796875 L 327.429688 202.339844 L 327.722656 199.898438 L 327.820312 197.445312 L 327.863281 194.371094 L 328.285156 191.953125 L 328.417969 189.5 L 328.585938 187.050781 L 328.8125 184.601562 L 329.011719 182.152344 L 329.378906 179.105469 L 329.417969 176.644531 L 329.546875 174.195312 L 329.722656 171.742188 L 329.816406 169.285156 L 329.824219 166.824219 L 330.117188 163.769531 L 330.8125 161.410156 L 331.859375 159.199219 Z M 334.285156 157.429688 "/>
<path style="fill-rule:nonzero;fill:rgb(69.803922%,52.54902%,75.294118%);fill-opacity:1;stroke-width:0.75;stroke-linecap:round;stroke-linejoin:round;stroke:rgb(20%,20%,20%);stroke-opacity:1;stroke-miterlimit:10;" d="M 475.398438 157.429688 L 477.574219 158.097656 L 479.394531 159.558594 L 481.246094 160.972656 L 483.742188 162.484375 L 485.445312 164.019531 L 487.125 165.632812 L 488.824219 167.21875 L 490.503906 168.839844 L 491.878906 170.714844 L 493.386719 173.195312 L 494.628906 175.164062 L 495.242188 177.417969 L 496.226562 179.53125 L 497.148438 181.675781 L 498.070312 183.816406 L 499.203125 186.5 L 500.390625 188.503906 L 501.351562 190.625 L 502.308594 192.753906 L 503.511719 194.75 L 504.421875 196.898438 L 505.613281 198.902344 L 507.320312 201.242188 L 508.410156 203.296875 L 509.660156 205.246094 L 510.910156 207.210938 L 511.4375 209.480469 L 511.96875 211.75 L 511.675781 214.617188 L 511.425781 216.9375 L 511.085938 219.242188 L 510.878906 221.558594 L 510.085938 223.75 L 509.441406 225.984375 L 508.359375 228.683594 L 507.761719 230.9375 L 507.039062 233.15625 L 506.125 235.292969 L 505.660156 237.578125 L 504.941406 239.796875 L 503.878906 241.871094 L 502.757812 244.550781 L 501.929688 246.734375 L 500.832031 248.792969 L 499.613281 250.785156 L 498.789062 252.96875 L 498.09375 255.191406 L 496.835938 257.820312 L 495.910156 259.953125 L 494.917969 262.054688 L 492.839844 262.925781 L 490.929688 263.9375 L 489.929688 266.046875 L 489.484375 268.925781 L 489.117188 271.226562 L 489.007812 273.554688 L 488.714844 275.867188 L 488.089844 278.101562 L 486.5625 279.816406 L 484.808594 281.347656 L 482.003906 282.09375 L 479.832031 282.9375 L 477.769531 284.019531 L 475.5625 284.652344 L 473.429688 283.820312 L 471.296875 282.984375 L 469.617188 280.695312 L 470.210938 278.464844 L 471.015625 276.28125 L 471.472656 274.011719 L 471.605469 271.683594 L 471.640625 269.347656 L 471.640625 266.425781 L 471.519531 264.097656 L 471.175781 261.949219 L 470.835938 259.640625 L 470.1875 257.40625 L 469.535156 255.167969 L 468.621094 252.410156 L 467.441406 250.40625 L 466.355469 248.367188 L 465.902344 246.082031 L 465.859375 243.777344 L 466.324219 241.488281 L 466.65625 239.179688 L 467.644531 236.441406 L 468.125 234.15625 L 468.59375 231.867188 L 468.8125 229.546875 L 468.863281 227.214844 L 469.144531 224.90625 L 468.867188 222.011719 L 468.953125 219.679688 L 469.113281 217.367188 L 469.144531 215.03125 L 468.980469 212.703125 L 469.140625 210.375 L 468.8125 207.488281 L 468.648438 205.160156 L 468.644531 202.824219 L 468.351562 200.511719 L 467.984375 198.210938 L 467.910156 195.878906 L 467.515625 193.578125 L 467.316406 190.667969 L 467.316406 188.332031 L 467.15625 186.003906 L 466.96875 183.683594 L 466.652344 181.375 L 466.546875 179.042969 L 466.050781 176.167969 L 465.792969 173.851562 L 465.941406 171.582031 L 466.742188 169.386719 L 467.941406 167.382812 L 469.144531 165.382812 L 470.359375 162.734375 L 471.734375 160.847656 L 472.996094 158.882812 Z M 475.398438 157.429688 "/>
<path style="fill-rule:nonzero;fill:rgb(69.803922%,52.54902%,75.294118%);fill-opacity:1;stroke-width:0.75;stroke-linecap:round;stroke-linejoin:round;stroke:rgb(20%,20%,20%);stroke-opacity:1;stroke-miterlimit:10;" d="M 86.214844 291.347656 L 88.273438 292.246094 L 89.523438 294.136719 L 90.621094 296.136719 L 91.644531 298.78125 L 92.347656 300.949219 L 93.027344 303.128906 L 93.652344 305.328125 L 94.226562 307.535156 L 94.839844 309.730469 L 95.296875 312.546875 L 95.714844 314.792969 L 96.371094 316.976562 L 96.820312 319.210938 L 97.121094 321.476562 L 97.511719 323.703125 L 98.183594 326.402344 L 98.640625 328.617188 L 99.640625 330.667969 L 100.707031 332.6875 L 101.148438 334.917969 L 101.628906 337.144531 L 102.636719 339.160156 L 104.132812 341.574219 L 105.023438 343.671875 L 105.964844 345.730469 L 107.050781 347.71875 L 108.007812 349.792969 L 108.835938 351.90625 L 109.21875 354.582031 L 108.71875 356.804688 L 108.539062 359.078125 L 108.054688 361.285156 L 107.21875 363.40625 L 106.457031 365.558594 L 105.546875 368.25 L 105.007812 370.4375 L 104.753906 372.707031 L 104.503906 374.972656 L 104.621094 377.25 L 104.945312 379.503906 L 105.371094 381.746094 L 105.554688 384.589844 L 105.347656 386.863281 L 105.039062 389.125 L 104.867188 391.402344 L 104.507812 393.648438 L 103.914062 395.847656 L 103.097656 398.582031 L 102.253906 400.6875 L 101.3125 402.753906 L 100.503906 404.890625 L 99.589844 406.980469 L 98.503906 408.992188 L 97.257812 411.519531 L 95.421875 412.554688 L 93.941406 414.191406 L 92.578125 415.871094 L 90.4375 416.632812 L 88.171875 416.875 L 86.035156 417.679688 L 83.363281 418.570312 L 81.152344 418.21875 L 79.84375 416.363281 L 78.941406 414.277344 L 78.121094 412.160156 L 77.378906 410.011719 L 77.125 407.175781 L 76.730469 404.929688 L 76.25 402.699219 L 75.421875 400.589844 L 74.613281 398.457031 L 73.460938 396.488281 L 72.890625 393.730469 L 72.078125 391.613281 L 71.261719 389.488281 L 70.835938 387.242188 L 70.308594 385.023438 L 70.28125 382.738281 L 70.40625 379.890625 L 70.886719 377.65625 L 71.15625 375.390625 L 71.480469 373.132812 L 71.625 370.855469 L 71.863281 368.59375 L 72.035156 366.316406 L 72.207031 363.46875 L 71.878906 361.214844 L 71.664062 358.941406 L 71.175781 356.710938 L 70.402344 354.570312 L 69.617188 352.429688 L 68.820312 349.707031 L 67.695312 347.738281 L 66.902344 345.605469 L 66.242188 343.417969 L 66.011719 341.148438 L 65.660156 338.894531 L 65.613281 336.046875 L 65.195312 333.816406 L 65.191406 331.527344 L 65.191406 326.957031 L 65.019531 324.683594 L 65.910156 322.699219 L 67.460938 320.417969 L 69.261719 319.199219 L 70.554688 317.324219 L 71.925781 315.503906 L 73.167969 313.605469 L 74.40625 311.6875 L 76.101562 309.394531 L 77.003906 307.300781 L 78.089844 305.292969 L 79.246094 303.324219 L 80.28125 301.292969 L 80.6875 299.066406 L 81.675781 296.398438 L 82.441406 294.25 L 83.660156 292.328125 Z M 86.214844 291.347656 "/>
<path style="fill-rule:nonzero;fill:rgb(69.803922%,52.54902%,75.294118%);fill-opacity:1;stroke-width:0.75;stroke-linecap:round;stroke-linejoin:round;stroke:rgb(20%,20%,20%);stroke-opacity:1;stroke-miterlimit:10;" d="M 210.28125 291.347656 L 212.519531 291.882812 L 214.359375 293.25 L 216.074219 294.765625 L 218.308594 296.589844 L 220.035156 298.125 L 221.359375 299.945312 L 222.695312 301.8125 L 224 303.71875 L 224.710938 305.914062 L 225.886719 308.550781 L 226.988281 310.582031 L 227.921875 312.691406 L 228.953125 314.757812 L 229.769531 316.90625 L 230.925781 318.890625 L 232.070312 321.515625 L 233.023438 323.613281 L 234.210938 325.585938 L 235.144531 327.683594 L 236.308594 329.664062 L 236.617188 331.945312 L 237.125 334.199219 L 237.664062 337.03125 L 238.152344 339.28125 L 238.734375 341.515625 L 239.253906 343.765625 L 239.683594 346.027344 L 240.3125 348.226562 L 240.648438 351.058594 L 241.214844 353.289062 L 242.128906 355.394531 L 242.558594 357.660156 L 243.21875 359.867188 L 243.890625 362.070312 L 244.371094 364.914062 L 244.933594 367.144531 L 245.824219 369.207031 L 245.074219 371.382812 L 243.875 373.351562 L 242.296875 375.027344 L 240.824219 376.808594 L 239.363281 379.183594 L 238.15625 381.136719 L 236.90625 383.054688 L 235.710938 385.03125 L 234.761719 387.105469 L 233.449219 388.925781 L 232.402344 391.574219 L 231.078125 393.433594 L 230.269531 395.589844 L 229.328125 397.699219 L 228.296875 399.75 L 227.757812 401.988281 L 226.804688 404.707031 L 225.867188 406.816406 L 224.941406 408.90625 L 224.285156 411.101562 L 223.863281 413.347656 L 222.316406 415.039062 L 220.160156 415.753906 L 217.511719 416.738281 L 215.527344 417.921875 L 213.394531 418.570312 L 211.542969 417.21875 L 209.554688 416.128906 L 209.292969 413.851562 L 209.292969 410.964844 L 209.316406 408.652344 L 209.460938 406.351562 L 209.160156 404.058594 L 209.003906 401.757812 L 208.597656 399.492188 L 207.523438 396.847656 L 206.140625 395.003906 L 204.78125 393.136719 L 204.273438 390.902344 L 204.246094 388.589844 L 204.585938 386.3125 L 204.214844 383.484375 L 203.441406 381.320312 L 202.765625 379.109375 L 202 376.933594 L 200.84375 374.933594 L 199.519531 373.042969 L 198.320312 371.074219 L 196.957031 368.554688 L 197.015625 366.25 L 197.554688 364.007812 L 197.773438 361.707031 L 197.796875 359.398438 L 197.621094 357.09375 L 197.441406 354.214844 L 197.105469 351.933594 L 196.824219 349.652344 L 196.578125 347.367188 L 196.5625 345.054688 L 196.253906 342.765625 L 196.378906 339.898438 L 196.808594 337.640625 L 197.144531 335.363281 L 197.859375 333.171875 L 198.320312 330.914062 L 199.03125 328.722656 L 199.460938 326.453125 L 199.882812 323.601562 L 199.886719 321.289062 L 199.886719 318.976562 L 199.65625 316.683594 L 198.820312 314.53125 L 198.492188 312.273438 L 199.148438 309.484375 L 200.171875 307.417969 L 200.839844 305.214844 L 201.53125 303.011719 L 202.671875 301.003906 L 203.882812 299.039062 L 205.210938 296.480469 L 206.59375 294.632812 L 207.816406 292.683594 Z M 210.28125 291.347656 "/>
<path style="fill-rule:nonzero;fill:rgb(69.803922%,52.54902%,75.294118%);fill-opacity:1;stroke-width:0.75;stroke-linecap:round;stroke-linejoin:round;stroke:rgb(20%,20%,20%);stroke-opacity:1;stroke-miterlimit:10;" d="M 345.058594 291.347656 L 347.203125 291.84375 L 348.800781 293.410156 L 350.152344 295.191406 L 351.464844 297.667969 L 352.511719 299.652344 L 353.527344 301.628906 L 354.003906 303.804688 L 355.367188 305.566406 L 356.664062 307.382812 L 358.382812 309.570312 L 359.765625 311.300781 L 361.277344 312.933594 L 361.792969 315.089844 L 362.675781 317.136719 L 363.253906 319.296875 L 363.878906 322.015625 L 364.492188 324.167969 L 365.234375 326.273438 L 365.988281 328.378906 L 366.617188 330.527344 L 367.125 332.691406 L 367.929688 334.785156 L 368.976562 337.378906 L 369.652344 339.503906 L 370.160156 341.6875 L 370.816406 343.824219 L 371.546875 345.929688 L 371.941406 348.121094 L 372.5 350.863281 L 372.535156 353.09375 L 372.347656 355.328125 L 372.152344 357.5625 L 371.863281 359.773438 L 371.703125 361.984375 L 371.34375 364.761719 L 371.339844 367.003906 L 371.359375 369.230469 L 371.167969 371.460938 L 370.945312 373.691406 L 370.078125 375.75 L 369.683594 377.960938 L 369.488281 380.75 L 368.925781 382.90625 L 368.519531 385.105469 L 367.960938 387.261719 L 367.214844 389.371094 L 366.566406 391.519531 L 365.90625 394.222656 L 365.066406 396.300781 L 364.160156 398.351562 L 363.476562 400.488281 L 363.082031 402.695312 L 362.375 404.824219 L 361.339844 407.417969 L 360.480469 409.480469 L 360.023438 411.671875 L 359.421875 413.832031 L 358.550781 415.859375 L 356.933594 417.414062 L 354.886719 418.15625 L 352.117188 418.570312 L 349.910156 418.179688 L 347.675781 417.996094 L 345.492188 417.570312 L 343.484375 416.617188 L 341.964844 414.976562 L 341.082031 412.347656 L 340.714844 410.132812 L 340.519531 407.902344 L 340.621094 405.671875 L 340.507812 403.460938 L 340.703125 401.230469 L 341.433594 398.539062 L 342.011719 396.378906 L 342.347656 394.164062 L 342.015625 391.957031 L 341.535156 389.773438 L 341.351562 387.550781 L 341.355469 384.746094 L 341.738281 382.546875 L 342.1875 380.371094 L 342.054688 378.132812 L 341.484375 375.976562 L 341.089844 373.773438 L 340.734375 371.566406 L 340.847656 368.765625 L 340.832031 366.523438 L 341.347656 364.363281 L 341.351562 362.117188 L 341.347656 359.875 L 340.964844 357.667969 L 340.683594 354.882812 L 340.53125 352.648438 L 340.507812 350.402344 L 340.164062 348.191406 L 339.859375 343.722656 L 339.726562 340.929688 L 339.460938 338.710938 L 339.171875 336.492188 L 338.90625 334.277344 L 338.734375 332.042969 L 338.273438 329.847656 L 337.835938 327.65625 L 337.460938 324.886719 L 337.382812 322.65625 L 337.839844 320.460938 L 338.597656 318.359375 L 339.484375 316.300781 L 340.230469 314.195312 L 340.679688 311.46875 L 340.832031 309.234375 L 340.910156 306.996094 L 341.335938 304.792969 L 342.003906 302.679688 L 342.246094 300.460938 L 342.523438 297.671875 L 342.851562 295.464844 L 343.214844 293.265625 Z M 345.058594 291.347656 "/>
<path style="fill-rule:nonzero;fill:rgb(69.803922%,52.54902%,75.294118%);fill-opacity:1;stroke-width:0.75;stroke-linecap:round;stroke-linejoin:round;stroke:rgb(20%,20%,20%);stroke-opacity:1;stroke-miterlimit:10;" d="M 495.734375 291.347656 L 498.136719 291.550781 L 499.890625 293.195312 L 501.359375 295.128906 L 502.867188 297.75 L 503.867188 299.949219 L 504.375 302.3125 L 504.898438 304.652344 L 504.90625 307.082031 L 505.222656 309.488281 L 505.390625 312.511719 L 505.390625 314.941406 L 505.632812 317.34375 L 506.445312 319.628906 L 506.652344 322.042969 L 507.382812 324.355469 L 507.824219 327.347656 L 508.195312 329.726562 L 508.742188 332.085938 L 508.988281 334.5 L 509.628906 336.839844 L 509.917969 339.246094 L 510.816406 341.492188 L 511.347656 344.46875 L 512.027344 346.789062 L 512.472656 349.171875 L 513.21875 351.460938 L 513.675781 353.820312 L 514.050781 356.1875 L 514.722656 359.109375 L 515.308594 361.445312 L 516.15625 363.714844 L 517.140625 365.929688 L 518.171875 368.113281 L 519.308594 370.253906 L 520.101562 373.183594 L 520.261719 375.597656 L 520.175781 378.019531 L 519.992188 380.441406 L 519.773438 382.855469 L 519.269531 385.210938 L 518.148438 387.359375 L 516.582031 389.960938 L 515.5625 392.160156 L 514.5625 394.367188 L 513.292969 396.4375 L 511.992188 398.488281 L 510.570312 400.453125 L 509.152344 403.128906 L 508.019531 405.261719 L 506.496094 407.152344 L 504.9375 409.011719 L 503.347656 410.851562 L 501.65625 412.589844 L 499.160156 414.292969 L 497.273438 415.820312 L 495.019531 416.699219 L 492.882812 417.855469 L 490.582031 418.570312 L 488.226562 418.144531 L 486.253906 416.738281 L 483.285156 416.191406 L 480.96875 415.59375 L 478.8125 414.476562 L 476.503906 413.765625 L 474.371094 412.609375 L 472.523438 411.042969 L 471.128906 408.398438 L 471.011719 405.976562 L 470.585938 403.617188 L 469.929688 401.289062 L 469.152344 399 L 468.105469 396.816406 L 466.03125 394.625 L 464.546875 392.730469 L 462.929688 390.921875 L 461.414062 389.027344 L 460.335938 386.863281 L 459.464844 384.601562 L 459.164062 381.585938 L 458.941406 379.171875 L 458.144531 376.886719 L 457.90625 374.472656 L 457.601562 372.070312 L 457.496094 369.671875 L 457.601562 367.246094 L 457.714844 364.21875 L 457.84375 361.796875 L 458.117188 359.390625 L 458.746094 357.050781 L 459.21875 354.675781 L 459.589844 352.285156 L 460.484375 349.402344 L 460.734375 346.996094 L 461.414062 344.667969 L 461.964844 342.304688 L 462.648438 339.976562 L 463.496094 337.710938 L 464.648438 334.902344 L 465.679688 332.710938 L 466.722656 330.523438 L 468.03125 328.476562 L 469.050781 326.285156 L 469.886719 324.011719 L 470.699219 321.738281 L 471.957031 318.980469 L 472.773438 316.695312 L 474.03125 314.632812 L 475.511719 312.707031 L 476.980469 310.777344 L 478.371094 308.785156 L 479.996094 306.25 L 481.105469 304.105469 L 482.546875 302.15625 L 484.167969 300.347656 L 485.394531 298.257812 L 486.785156 296.269531 L 488.820312 294.019531 L 490.496094 292.265625 L 492.699219 291.367188 Z M 495.734375 291.347656 "/>
<path style="fill-rule:nonzero;fill:rgb(69.803922%,52.54902%,75.294118%);fill-opacity:1;stroke-width:0.75;stroke-linecap:round;stroke-linejoin:round;stroke:rgb(20%,20%,20%);stroke-opacity:1;stroke-miterlimit:10;" d="M 68.960938 425.269531 L 71.1875 426.070312 L 73.210938 427.328125 L 75.199219 428.648438 L 77.605469 430.414062 L 79.390625 432.007812 L 81.175781 433.585938 L 82.949219 435.1875 L 84.503906 436.996094 L 86.058594 438.8125 L 87.984375 441.097656 L 89.238281 443.117188 L 90.261719 445.269531 L 91.402344 447.367188 L 92.617188 449.421875 L 93.519531 451.621094 L 94.589844 454.394531 L 95.332031 456.550781 L 96.640625 458.550781 L 97.445312 460.78125 L 98.222656 463.039062 L 98.902344 465.316406 L 100.09375 467.375 L 101.628906 469.90625 L 102.988281 471.867188 L 103.957031 474.039062 L 104.359375 476.398438 L 104.671875 478.746094 L 105.648438 480.882812 L 106.449219 483.757812 L 106.800781 486.109375 L 107.269531 488.433594 L 107.804688 490.738281 L 108.117188 493.085938 L 108.542969 495.421875 L 109.066406 498.359375 L 108.960938 500.742188 L 109.070312 503.125 L 109.257812 505.5 L 109.128906 507.886719 L 108.960938 510.265625 L 108.941406 512.65625 L 108.121094 515.496094 L 108.117188 517.886719 L 108.539062 520.21875 L 108.820312 522.558594 L 108.367188 524.890625 L 108.28125 527.277344 L 108.117188 530.257812 L 108.117188 532.648438 L 108.09375 535.039062 L 107.941406 537.421875 L 107.257812 539.695312 L 106.214844 541.84375 L 104.167969 543.984375 L 102.382812 545.570312 L 100.480469 547.015625 L 98.285156 547.9375 L 96.335938 549.289062 L 94.214844 550.382812 L 91.996094 551.257812 L 89.125 551.984375 L 86.742188 552.113281 L 84.390625 552.492188 L 82.011719 552.351562 L 79.726562 551.660156 L 77.410156 551.074219 L 74.453125 550.675781 L 72.074219 550.472656 L 70.027344 549.40625 L 68.40625 547.699219 L 67.269531 545.601562 L 66.496094 543.359375 L 65.925781 540.46875 L 65.925781 535.6875 L 65.589844 530.921875 L 65.5625 528.53125 L 65.417969 525.554688 L 65.421875 523.164062 L 65.421875 515.992188 L 65.507812 513.605469 L 65.433594 511.226562 L 64.984375 508.308594 L 65.277344 505.945312 L 65.394531 503.566406 L 65.417969 501.1875 L 65.421875 498.796875 L 65.53125 496.417969 L 65.398438 493.433594 L 65.421875 491.046875 L 65.292969 488.664062 L 65.25 486.273438 L 65.253906 483.882812 L 65.417969 481.5 L 65.421875 478.511719 L 65.421875 476.121094 L 65.417969 473.734375 L 65.578125 471.351562 L 65.542969 468.976562 L 65.589844 466.585938 L 65.574219 464.195312 L 65.445312 461.214844 L 65.589844 458.832031 L 65.589844 456.441406 L 65.421875 454.0625 L 65.566406 451.679688 L 65.589844 449.289062 L 65.480469 446.304688 L 65.269531 443.929688 L 65.421875 441.546875 L 65.253906 439.164062 L 65.25 436.773438 L 65.390625 434.390625 L 65.699219 431.421875 L 65.914062 429.042969 L 66.554688 426.792969 Z M 68.960938 425.269531 "/>
<path style="fill-rule:nonzero;fill:rgb(69.803922%,52.54902%,75.294118%);fill-opacity:1;stroke-width:0.75;stroke-linecap:round;stroke-linejoin:round;stroke:rgb(20%,20%,20%);stroke-opacity:1;stroke-miterlimit:10;" d="M 226.128906 425.269531 L 228.5625 425.660156 L 230.25 427.511719 L 231.929688 429.347656 L 233.703125 431.941406 L 234.957031 434.109375 L 235.074219 436.613281 L 234.984375 439.121094 L 234.933594 441.632812 L 235.464844 444.074219 L 236.632812 446.980469 L 237.398438 449.363281 L 238.253906 451.710938 L 239.0625 454.082031 L 239.835938 456.460938 L 240.546875 458.847656 L 241.839844 461.699219 L 242.730469 464.027344 L 243.808594 466.285156 L 244.800781 468.582031 L 245.507812 470.972656 L 245.894531 473.445312 L 246.273438 475.929688 L 247.238281 478.910156 L 248.117188 481.25 L 248.25 483.757812 L 248.800781 486.207031 L 249.246094 488.679688 L 249.515625 491.175781 L 249.8125 494.296875 L 249.667969 496.800781 L 250.234375 499.238281 L 250.484375 501.738281 L 250.484375 509.910156 L 250.472656 512.425781 L 250.320312 514.929688 L 250.214844 517.4375 L 250.046875 519.945312 L 249.777344 522.4375 L 249.226562 524.878906 L 248.238281 527.855469 L 247.371094 530.214844 L 246.28125 532.46875 L 245.132812 534.6875 L 243.402344 536.507812 L 241.90625 538.523438 L 239.632812 540.6875 L 237.996094 542.59375 L 236.1875 544.332031 L 235.09375 546.589844 L 233.863281 548.78125 L 232.386719 550.808594 L 229.675781 552.195312 L 227.191406 552.492188 L 224.726562 552.238281 L 222.277344 551.863281 L 219.773438 551.667969 L 217.265625 551.539062 L 214.761719 551.382812 L 211.648438 551.039062 L 209.160156 551.320312 L 206.671875 551.046875 L 204.191406 550.972656 L 201.910156 549.960938 L 200.195312 548.191406 L 198.140625 545.832031 L 197.117188 543.550781 L 196.378906 541.152344 L 195.5 538.808594 L 194.671875 536.445312 L 194.4375 533.949219 L 193.652344 530.914062 L 193.167969 528.449219 L 192.710938 525.980469 L 192.113281 523.539062 L 191.59375 521.089844 L 191.652344 518.589844 L 191.984375 515.496094 L 191.785156 513 L 191.824219 510.5 L 191.757812 507.996094 L 191.824219 505.484375 L 191.734375 502.976562 L 191.976562 500.476562 L 192.257812 497.347656 L 192.453125 494.84375 L 192.957031 492.382812 L 193.152344 489.878906 L 193.636719 487.425781 L 193.734375 484.996094 L 193.980469 481.871094 L 194.152344 479.363281 L 194.457031 476.871094 L 194.476562 474.355469 L 194.6875 471.855469 L 195.113281 469.390625 L 195.53125 466.28125 L 195.804688 463.78125 L 196.21875 461.304688 L 196.300781 458.792969 L 196.570312 456.296875 L 196.796875 453.804688 L 196.796875 451.289062 L 196.84375 448.160156 L 197.765625 445.832031 L 198.96875 443.667969 L 200.488281 441.671875 L 201.855469 439.5625 L 203.558594 437.734375 L 205.519531 435.328125 L 206.917969 433.261719 L 209.230469 432.324219 L 211.507812 431.265625 L 213.53125 429.789062 L 215.65625 428.445312 L 218.179688 426.589844 L 220.503906 425.6875 L 222.988281 425.332031 Z M 226.128906 425.269531 "/>
<path style="fill-rule:nonzero;fill:rgb(69.803922%,52.54902%,75.294118%);fill-opacity:1;stroke-width:0.75;stroke-linecap:round;stroke-linejoin:round;stroke:rgb(20%,20%,20%);stroke-opacity:1;stroke-miterlimit:10;" d="M 339.246094 425.269531 L 341.394531 426.25 L 343.644531 426.976562 L 345.886719 427.667969 L 348.34375 429.300781 L 350.46875 430.339844 L 352.644531 431.273438 L 354.242188 433.015625 L 356.089844 434.496094 L 358.003906 435.878906 L 360.09375 437.976562 L 361.914062 439.5 L 363.542969 441.222656 L 365.164062 442.9375 L 366.890625 444.550781 L 368.054688 446.609375 L 370.226562 448.609375 L 371.832031 450.355469 L 373.488281 452.054688 L 374.832031 454 L 376.054688 456.035156 L 376.417969 458.363281 L 377.285156 460.570312 L 378.140625 463.40625 L 378.691406 465.707031 L 378.898438 468.070312 L 378.90625 470.445312 L 379.042969 472.808594 L 378.746094 475.160156 L 379.089844 478.09375 L 379.792969 480.351562 L 380.015625 482.707031 L 380.199219 485.070312 L 380.199219 487.445312 L 379.992188 489.804688 L 379.683594 492.753906 L 379.960938 495.09375 L 379.839844 497.457031 L 379.78125 499.828125 L 379.644531 502.195312 L 379.644531 504.566406 L 379.761719 506.933594 L 379.40625 509.855469 L 379.09375 512.199219 L 379.226562 514.566406 L 378.75 516.886719 L 378.851562 519.25 L 378.902344 521.621094 L 378.546875 524.566406 L 377.914062 526.851562 L 376.859375 528.957031 L 376.269531 531.25 L 375.484375 533.488281 L 374.519531 535.652344 L 373.144531 538.273438 L 372.128906 540.414062 L 371.480469 542.667969 L 369.785156 544.171875 L 368.539062 546.175781 L 367.546875 548.320312 L 366.171875 550.222656 L 363.675781 551.824219 L 361.445312 552.492188 L 359.496094 551.183594 L 357.574219 549.796875 L 355.867188 548.148438 L 353.992188 546.695312 L 351.308594 545.449219 L 349.265625 544.265625 L 347.074219 543.375 L 344.863281 542.632812 L 342.746094 541.574219 L 340.96875 540 L 338.9375 537.84375 L 337.964844 535.6875 L 337.054688 533.496094 L 336.011719 531.367188 L 335.351562 529.089844 L 335.023438 526.746094 L 334.390625 523.847656 L 333.648438 521.59375 L 332.695312 519.433594 L 331.925781 517.191406 L 331.226562 514.929688 L 331.039062 512.566406 L 330.832031 510.207031 L 330.648438 507.25 L 330.632812 504.875 L 330.617188 502.574219 L 331.015625 500.273438 L 331.003906 497.898438 L 330.710938 495.542969 L 330.625 492.582031 L 330.304688 490.230469 L 330.277344 487.855469 L 330.097656 485.492188 L 330.089844 483.117188 L 330.089844 480.746094 L 329.945312 477.789062 L 329.90625 475.414062 L 329.820312 473.046875 L 329.722656 470.675781 L 329.722656 468.304688 L 329.910156 465.941406 L 330.089844 463.578125 L 330.128906 460.613281 L 330.289062 458.246094 L 330.761719 455.925781 L 330.925781 453.558594 L 331.035156 451.191406 L 331.660156 448.914062 L 332.132812 445.984375 L 332.738281 443.695312 L 333.257812 441.378906 L 333.78125 439.066406 L 334.140625 436.722656 L 334.828125 434.453125 L 335.441406 431.566406 L 336.757812 429.609375 L 337.515625 427.429688 Z M 339.246094 425.269531 "/>
</g>
</svg>
