<?xml version="1.0" encoding="UTF-8"?>
<svg xmlns="http://www.w3.org/2000/svg" xmlns:xlink="http://www.w3.org/1999/xlink" width="576pt" height="576pt" viewBox="0 0 576 576" version="1.1">
<g id="surface9926">
<rect x="0" y="0" width="576" height="576" style="fill:rgb(100%,100%,100%);fill-opacity:1;stroke:none;"/>
<path style="fill-rule:nonzero;fill:rgb(69.803922%,52.54902%,75.294118%);fill-opacity:1;stroke-width:0.75;stroke-linecap:round;stroke-linejoin:round;stroke:rgb(20%,20%,20%);stroke-opacity:1;stroke-miterlimit:10;" d="M 83.113281 23.507812 L 85.136719 24.601562 L 86.917969 26.109375 L 88.652344 27.671875 L 90.644531 29.808594 L 92.574219 31.121094 L 94.402344 32.582031 L 96.046875 34.238281 L 97.566406 36.011719 L 99.09375 37.777344 L 99.648438 40.539062 L 99.773438 42.871094 L 99.960938 45.199219 L 100.519531 47.449219 L 101.222656 49.675781 L 102.371094 51.710938 L 103.96875 54.15625 L 104.824219 56.328125 L 105.066406 58.636719 L 105.253906 60.964844 L 105.714844 63.257812 L 105.761719 65.59375 L 105.628906 67.925781 L 105.902344 70.824219 L 105.9375 73.164062 L 105.769531 75.492188 L 106.027344 77.816406 L 106.496094 80.09375 L 106.289062 82.398438 L 106.449219 85.308594 L 106.640625 87.632812 L 106.195312 89.914062 L 106.050781 92.242188 L 105.628906 94.542969 L 104.886719 96.761719 L 104.183594 99.582031 L 104.304688 101.914062 L 104.96875 104.152344 L 105.269531 106.472656 L 105.242188 108.796875 L 104.542969 111.007812 L 104.046875 113.289062 L 103.375 116.132812 L 102.597656 118.324219 L 101.875 120.535156 L 101.523438 122.84375 L 101.210938 125.164062 L 101.242188 127.5 L 101.582031 130.398438 L 102.558594 134.945312 L 102.902344 137.234375 L 103.238281 139.5 L 101.871094 141.375 L 99.917969 143.515625 L 97.835938 144.519531 L 95.675781 145.292969 L 93.480469 146.070312 L 91.761719 147.632812 L 90.195312 149.371094 L 88.265625 150.605469 L 85.355469 150.542969 L 83.027344 150.730469 L 80.710938 150.457031 L 78.628906 149.398438 L 76.835938 147.925781 L 75.699219 145.894531 L 74.410156 143.347656 L 72.929688 141.539062 L 70.878906 140.707031 L 68.636719 140.5625 L 67.785156 138.480469 L 67.609375 136.152344 L 67.609375 128.546875 L 67.601562 126.207031 L 67.597656 123.878906 L 67.609375 121.539062 L 67.675781 118.617188 L 67.785156 116.28125 L 67.785156 111.601562 L 67.910156 109.269531 L 68.132812 106.945312 L 68.125 104.625 L 68.261719 101.71875 L 68.226562 99.457031 L 68.3125 97.121094 L 68.316406 94.78125 L 68.488281 92.453125 L 68.488281 90.113281 L 68.492188 87.1875 L 68.664062 84.855469 L 68.492188 82.527344 L 68.488281 80.183594 L 68.488281 77.84375 L 68.457031 75.515625 L 68.488281 72.589844 L 68.488281 70.25 L 68.636719 67.917969 L 69.015625 65.613281 L 69.355469 63.300781 L 69.378906 58.621094 L 70.085938 55.789062 L 70.246094 53.460938 L 70.410156 51.128906 L 70.421875 48.789062 L 70.59375 46.460938 L 70.816406 44.136719 L 70.960938 41.222656 L 71.304688 38.914062 L 72.179688 36.746094 L 73.335938 34.71875 L 74.570312 32.730469 L 75.71875 30.695312 L 77.613281 28.46875 L 79.113281 26.679688 L 80.683594 24.945312 Z M 83.113281 23.507812 "/>
<path style="fill-rule:nonzero;fill:rgb(69.803922%,52.54902%,75.294118%);fill-opacity:1;stroke-width:0.75;stroke-linecap:round;stroke-linejoin:round;stroke:rgb(20%,20%,20%);stroke-opacity:1;stroke-miterlimit:10;" d="M 224.25 23.507812 L 226.449219 24.324219 L 228.285156 25.875 L 230.328125 27.148438 L 232.433594 29.222656 L 233.550781 31.355469 L 234.480469 33.574219 L 235.4375 35.785156 L 236.160156 38.074219 L 236.769531 40.402344 L 237.332031 43.34375 L 237.53125 45.742188 L 237.78125 48.136719 L 238.335938 50.480469 L 239.359375 52.652344 L 240.394531 54.824219 L 241.484375 57.621094 L 242.285156 59.890625 L 243.488281 61.976562 L 244.472656 64.15625 L 244.703125 66.550781 L 244.90625 68.949219 L 245.261719 71.324219 L 245.679688 74.292969 L 245.652344 76.699219 L 245.980469 79.066406 L 246.234375 81.457031 L 246.234375 83.863281 L 246.378906 86.265625 L 246.621094 89.265625 L 246.890625 91.640625 L 247.203125 94.011719 L 247.628906 96.363281 L 247.96875 98.742188 L 248.089844 101.144531 L 248.171875 104.152344 L 248.171875 106.5625 L 248.484375 108.945312 L 248.761719 111.339844 L 248.914062 113.621094 L 247.742188 115.726562 L 246.941406 117.960938 L 245.433594 120.460938 L 244.84375 122.792969 L 244.519531 125.175781 L 243.828125 127.464844 L 243.035156 129.738281 L 242.328125 132.027344 L 241.5 134.917969 L 241.082031 137.269531 L 240.253906 139.527344 L 239.574219 141.835938 L 238.621094 144.042969 L 237.800781 146.300781 L 236.488281 148.980469 L 234.742188 150.625 L 232.367188 150.730469 L 229.96875 150.539062 L 227.585938 150.273438 L 225.28125 149.601562 L 222.894531 149.359375 L 219.96875 148.691406 L 217.566406 148.660156 L 215.164062 148.796875 L 212.796875 148.445312 L 210.964844 147 L 209.792969 144.902344 L 208.863281 142.039062 L 208.105469 139.757812 L 207.675781 137.390625 L 207.160156 135.039062 L 206.046875 132.917969 L 204.757812 130.886719 L 203.25 128.289062 L 201.644531 126.5625 L 200.308594 124.585938 L 198.507812 123 L 196.621094 121.535156 L 194.757812 120.019531 L 193.34375 117.539062 L 193.164062 115.144531 L 193.363281 112.746094 L 193.367188 110.339844 L 193.367188 107.929688 L 193.328125 105.527344 L 193.355469 103.121094 L 193.339844 100.128906 L 193.367188 97.71875 L 193.535156 95.320312 L 193.929688 92.949219 L 194.167969 90.554688 L 194.578125 88.1875 L 194.921875 85.214844 L 195.265625 82.835938 L 195.742188 80.488281 L 196.144531 78.121094 L 196.558594 75.746094 L 196.863281 73.367188 L 197.519531 70.429688 L 198.210938 68.121094 L 198.867188 65.804688 L 199.683594 63.550781 L 200.222656 61.210938 L 200.945312 58.933594 L 202.0625 56.800781 L 203.417969 54.117188 L 204.429688 51.929688 L 205.71875 49.902344 L 207.066406 47.9375 L 208.101562 45.789062 L 209.441406 43.792969 L 211.054688 41.265625 L 211.945312 39.03125 L 213.175781 36.964844 L 214.515625 34.964844 L 215.546875 32.792969 L 216.953125 30.847656 L 218.5625 28.332031 L 220.035156 26.429688 L 221.53125 24.542969 Z M 224.25 23.507812 "/>
<path style="fill-rule:nonzero;fill:rgb(69.803922%,52.54902%,75.294118%);fill-opacity:1;stroke-width:0.75;stroke-linecap:round;stroke-linejoin:round;stroke:rgb(20%,20%,20%);stroke-opacity:1;stroke-miterlimit:10;" d="M 345.136719 23.507812 L 347.261719 24.554688 L 348.617188 26.535156 L 349.820312 28.625 L 351.398438 31.207031 L 353.09375 32.933594 L 355.007812 34.417969 L 357.023438 35.746094 L 359.128906 36.9375 L 360.972656 38.503906 L 363.484375 40.183594 L 365.433594 41.613281 L 367.253906 43.175781 L 368.617188 45.171875 L 370.042969 47.128906 L 371.355469 49.160156 L 373.144531 51.59375 L 374.40625 53.660156 L 375.566406 55.78125 L 376.660156 57.9375 L 377.8125 60.058594 L 378.679688 62.316406 L 379.746094 64.492188 L 381.101562 67.191406 L 382.113281 69.382812 L 383.246094 71.523438 L 384.289062 73.703125 L 384.828125 75.945312 L 383.960938 78.203125 L 383.328125 81.132812 L 382.179688 83.261719 L 381.28125 85.511719 L 380.574219 87.824219 L 379.660156 90.066406 L 378.644531 92.257812 L 377.453125 95.027344 L 376.429688 97.222656 L 375.445312 99.433594 L 374.214844 101.515625 L 373.136719 103.683594 L 372.039062 105.839844 L 370.847656 107.949219 L 369.664062 110.730469 L 368.550781 112.878906 L 367.660156 115.121094 L 367.144531 117.484375 L 366.757812 119.871094 L 366.453125 122.265625 L 366.457031 125.292969 L 366.898438 127.664062 L 367.3125 130.046875 L 367.578125 132.453125 L 367.03125 134.792969 L 365.992188 136.980469 L 364.527344 139.621094 L 363.148438 141.609375 L 361.835938 143.644531 L 360.398438 145.578125 L 358.867188 147.449219 L 357.175781 149.175781 L 355.183594 150.542969 L 352.3125 150.730469 L 350.273438 149.429688 L 348.078125 148.480469 L 345.65625 148.449219 L 343.277344 148.886719 L 340.976562 148.375 L 339.28125 145.886719 L 338.191406 143.722656 L 337.0625 141.585938 L 335.757812 139.554688 L 334.417969 137.539062 L 333.355469 135.367188 L 332.121094 132.601562 L 331.300781 130.328125 L 330.523438 128.039062 L 329.648438 125.785156 L 328.820312 123.511719 L 328.421875 121.125 L 327.804688 118.164062 L 327.347656 115.789062 L 327.097656 113.382812 L 326.710938 110.992188 L 326.253906 108.617188 L 326.199219 106.199219 L 326 103.789062 L 325.621094 100.789062 L 325.546875 98.367188 L 325.289062 95.96875 L 325.109375 93.558594 L 325.316406 91.152344 L 325.109375 88.742188 L 325.089844 85.714844 L 325.195312 83.300781 L 325.316406 80.882812 L 325.144531 78.472656 L 325.089844 76.054688 L 325.089844 73.632812 L 325.308594 70.617188 L 325.5625 68.210938 L 325.777344 65.800781 L 326 63.390625 L 326.003906 60.96875 L 326.007812 58.550781 L 326.226562 56.140625 L 326.589844 53.144531 L 326.8125 50.738281 L 326.917969 48.320312 L 327.109375 45.910156 L 327.371094 43.507812 L 327.683594 41.121094 L 328.265625 38.15625 L 329.15625 35.925781 L 330.714844 34.074219 L 332.417969 32.355469 L 334.207031 30.722656 L 336.03125 29.132812 L 338.308594 27.140625 L 340.253906 25.71875 L 342.265625 24.378906 Z M 345.136719 23.507812 "/>
<path style="fill-rule:nonzero;fill:rgb(69.803922%,52.54902%,75.294118%);fill-opacity:1;stroke-width:0.75;stroke-linecap:round;stroke-linejoin:round;stroke:rgb(20%,20%,20%);stroke-opacity:1;stroke-miterlimit:10;" d="M 486.253906 23.507812 L 488.277344 24.273438 L 490.046875 25.566406 L 491.085938 27.507812 L 492.28125 29.980469 L 492.921875 32.085938 L 493.691406 34.144531 L 494.648438 36.117188 L 495.304688 38.207031 L 496.125 40.246094 L 497.019531 42.832031 L 497.644531 44.921875 L 498.339844 47.007812 L 499.167969 49.042969 L 500.070312 51.03125 L 500.734375 53.109375 L 502.042969 55.527344 L 503.023438 57.492188 L 504.082031 59.417969 L 505.265625 61.273438 L 506.058594 63.292969 L 506.136719 65.492188 L 506.136719 72.648438 L 505.984375 74.84375 L 506.136719 77.039062 L 506.136719 79.238281 L 506.140625 81.441406 L 506.136719 84.183594 L 506.136719 86.386719 L 505.984375 88.578125 L 505.867188 90.769531 L 506.132812 92.953125 L 506.050781 95.148438 L 505.652344 97.855469 L 505.519531 100.050781 L 505.027344 102.191406 L 504.347656 104.285156 L 503.738281 106.394531 L 503.121094 108.503906 L 502.71875 110.667969 L 502.308594 113.382812 L 501.625 115.46875 L 501.078125 117.59375 L 500.722656 119.75 L 500.371094 121.914062 L 500.222656 124.105469 L 500.214844 126.859375 L 500.195312 129.0625 L 500.0625 131.257812 L 500.042969 133.457031 L 499.609375 135.605469 L 499.460938 137.800781 L 499 140.480469 L 498.707031 142.65625 L 497.960938 144.5625 L 495.914062 145.265625 L 494.003906 146.363281 L 492.316406 147.769531 L 490.542969 149.066406 L 488.007812 149.914062 L 485.984375 150.730469 L 484.167969 149.648438 L 483.382812 147.617188 L 483.25 145.425781 L 482.824219 143.269531 L 481.574219 140.820312 L 480.785156 138.808594 L 480.523438 136.625 L 480.246094 134.449219 L 479.75 132.320312 L 479.433594 130.152344 L 478.773438 127.492188 L 478.105469 125.398438 L 477.730469 123.246094 L 477.742188 121.058594 L 477.75 118.855469 L 477.617188 116.667969 L 477.320312 113.941406 L 477.328125 111.75 L 477.058594 109.566406 L 476.8125 107.378906 L 476.578125 105.195312 L 476.148438 103.035156 L 475.726562 100.875 L 475.167969 98.195312 L 475.015625 96.003906 L 474.585938 93.851562 L 474.351562 91.664062 L 473.96875 89.496094 L 473.425781 87.367188 L 472.804688 84.691406 L 472.359375 82.539062 L 471.941406 80.378906 L 471.621094 78.199219 L 471.878906 76.019531 L 472.507812 73.917969 L 472.882812 71.203125 L 472.738281 69.007812 L 472.738281 66.808594 L 472.742188 64.605469 L 473.265625 62.480469 L 473.992188 60.40625 L 474.648438 58.304688 L 475.707031 55.769531 L 476.527344 53.726562 L 476.878906 51.570312 L 477.335938 49.421875 L 477.929688 47.308594 L 478.414062 45.164062 L 479.117188 42.53125 L 479.8125 40.460938 L 480.773438 38.480469 L 481.667969 36.46875 L 482 34.3125 L 482.023438 32.125 L 482.824219 29.507812 L 483.644531 27.472656 L 484.5625 25.472656 Z M 486.253906 23.507812 "/>
<path style="fill-rule:nonzero;fill:rgb(69.803922%,52.54902%,75.294118%);fill-opacity:1;stroke-width:0.75;stroke-linecap:round;stroke-linejoin:round;stroke:rgb(20%,20%,20%);stroke-opacity:1;stroke-miterlimit:10;" d="M 72.273438 157.429688 L 74.46875 157.914062 L 76.5625 158.773438 L 78.703125 159.488281 L 81.238281 160.707031 L 83.109375 161.976562 L 84.90625 163.332031 L 86.59375 164.839844 L 88.242188 166.386719 L 90.027344 167.773438 L 91.824219 169.945312 L 93.484375 171.484375 L 94.949219 173.207031 L 96.542969 174.8125 L 98.019531 176.523438 L 99.648438 178.09375 L 101.378906 180.300781 L 102.859375 181.929688 L 102.933594 184.175781 L 103.238281 186.40625 L 103.410156 188.660156 L 103.5 190.917969 L 103.941406 193.121094 L 104.070312 195.941406 L 104.527344 198.152344 L 104.492188 200.410156 L 104.65625 202.664062 L 104.6875 204.925781 L 104.785156 207.179688 L 104.835938 210.007812 L 105.257812 212.21875 L 105.375 214.472656 L 105.605469 216.722656 L 106.078125 218.917969 L 106.082031 221.183594 L 106.410156 223.980469 L 106.4375 226.242188 L 106.4375 230.769531 L 106.261719 233.023438 L 106.257812 235.289062 L 105.882812 237.511719 L 104.558594 240 L 103.316406 241.890625 L 102.167969 243.839844 L 100.953125 245.75 L 100.058594 247.828125 L 99.210938 249.925781 L 98.066406 252.511719 L 97.359375 254.652344 L 96.664062 256.804688 L 96.015625 258.972656 L 95.035156 261.007812 L 94.164062 263.09375 L 93.269531 265.761719 L 92.378906 267.828125 L 91.441406 269.886719 L 90.859375 272.058594 L 89.886719 274.082031 L 89 276.160156 L 88.214844 278.277344 L 87.140625 280.890625 L 86.179688 282.902344 L 84.992188 284.652344 L 82.828125 284.222656 L 80.59375 284.308594 L 79.910156 282.285156 L 79.292969 279.539062 L 78.148438 277.59375 L 77.734375 275.386719 L 76.542969 273.464844 L 75.769531 271.34375 L 74.785156 269.304688 L 73.925781 266.613281 L 73.25 264.457031 L 72.457031 262.34375 L 72 260.128906 L 71.492188 257.925781 L 70.890625 255.765625 L 69.941406 253.136719 L 69.539062 250.945312 L 69.054688 248.746094 L 68.734375 246.523438 L 68.507812 244.28125 L 68.035156 242.074219 L 67.898438 239.835938 L 67.910156 237.015625 L 67.804688 234.757812 L 67.976562 232.503906 L 67.855469 230.25 L 67.800781 227.988281 L 68.121094 225.75 L 68.15625 222.921875 L 68.484375 220.6875 L 68.367188 218.433594 L 68.5 216.179688 L 68.507812 213.921875 L 68.511719 211.65625 L 68.226562 208.859375 L 68.324219 206.609375 L 68.15625 204.355469 L 68.109375 202.09375 L 68.132812 199.84375 L 68.332031 197.59375 L 68.507812 195.339844 L 68.6875 192.519531 L 68.800781 190.261719 L 69.046875 188.011719 L 69.222656 185.757812 L 69.375 183.503906 L 69.414062 181.242188 L 69.890625 178.457031 L 69.953125 176.195312 L 70.199219 173.949219 L 70.558594 171.71875 L 70.648438 169.457031 L 70.9375 167.230469 L 71.175781 164.433594 L 71.355469 162.21875 L 71.691406 159.984375 Z M 72.273438 157.429688 "/>
<path style="fill-rule:nonzero;fill:rgb(69.803922%,52.54902%,75.294118%);fill-opacity:1;stroke-width:0.75;stroke-linecap:round;stroke-linejoin:round;stroke:rgb(20%,20%,20%);stroke-opacity:1;stroke-miterlimit:10;" d="M 213.550781 157.429688 L 216.210938 157.816406 L 218.863281 158.226562 L 221.402344 159.101562 L 224.734375 158.757812 L 227.253906 159.539062 L 229.546875 160.957031 L 232.105469 161.789062 L 234.472656 163.074219 L 236.753906 164.515625 L 239.371094 166.628906 L 241.375 168.390625 L 242.507812 170.835938 L 243.5625 173.265625 L 244.429688 175.816406 L 245.023438 178.429688 L 245.390625 181.78125 L 246.152344 184.351562 L 246.464844 187.023438 L 247.472656 189.507812 L 248.148438 192.109375 L 249.445312 194.460938 L 250.695312 196.847656 L 251.8125 200.011719 L 252.386719 202.613281 L 252.480469 205.308594 L 253.121094 207.917969 L 253.378906 210.605469 L 253.617188 213.289062 L 253.726562 216.65625 L 254.285156 219.28125 L 254.667969 221.933594 L 254.886719 224.617188 L 254.886719 227.316406 L 254.890625 230.015625 L 255.71875 233.246094 L 255.851562 235.929688 L 254.984375 238.472656 L 254.671875 241.152344 L 254.851562 243.835938 L 254.886719 246.535156 L 254.886719 249.234375 L 254.671875 252.59375 L 254 255.179688 L 253.640625 257.832031 L 253.621094 260.53125 L 253.390625 263.214844 L 253.527344 265.90625 L 253.640625 269.273438 L 253.640625 271.972656 L 253.605469 274.667969 L 253.125 277.320312 L 251.59375 279.507812 L 249.773438 281.496094 L 247.640625 284.035156 L 245.03125 284.652344 L 242.433594 283.988281 L 239.738281 283.90625 L 237.050781 283.71875 L 231.65625 283.71875 L 228.324219 284.097656 L 225.640625 284.09375 L 223.003906 283.519531 L 220.308594 283.46875 L 217.621094 283.695312 L 214.941406 283.433594 L 211.664062 282.644531 L 208.992188 282.304688 L 206.46875 281.355469 L 203.804688 280.976562 L 201.175781 280.476562 L 198.503906 280.277344 L 195.800781 278.289062 L 193.585938 276.816406 L 193.222656 274.175781 L 193.21875 271.480469 L 193.21875 268.78125 L 193.316406 266.085938 L 193.46875 262.722656 L 193.246094 260.035156 L 193.160156 257.339844 L 192.257812 255.015625 L 191.96875 252.339844 L 191.378906 249.722656 L 190.457031 247.195312 L 189.1875 244.082031 L 187.546875 241.945312 L 186.984375 239.339844 L 186.972656 236.640625 L 186.394531 234.019531 L 186.230469 231.332031 L 186.292969 227.960938 L 186.960938 225.359375 L 187.230469 222.675781 L 188.125 220.144531 L 188.945312 217.589844 L 189.6875 215.003906 L 190.730469 211.808594 L 191.265625 209.164062 L 191.855469 206.53125 L 192.207031 203.859375 L 192.222656 201.160156 L 192.195312 198.460938 L 192.507812 195.808594 L 194.484375 193.089844 L 196.5 191.304688 L 197.804688 188.945312 L 199.261719 186.679688 L 200.554688 184.316406 L 201.773438 181.921875 L 202.851562 178.734375 L 203.722656 176.199219 L 204.699219 173.683594 L 205.570312 171.140625 L 206.707031 168.699219 L 207.917969 166.339844 L 208.289062 163.023438 L 209.191406 160.523438 L 210.28125 158.230469 Z M 213.550781 157.429688 "/>
<path style="fill-rule:nonzero;fill:rgb(69.803922%,52.54902%,75.294118%);fill-opacity:1;stroke-width:0.75;stroke-linecap:round;stroke-linejoin:round;stroke:rgb(20%,20%,20%);stroke-opacity:1;stroke-miterlimit:10;" d="M 334.285156 157.429688 L 336.601562 158.167969 L 338.816406 159.226562 L 340.835938 160.632812 L 343.449219 162.222656 L 345.320312 163.800781 L 347.289062 165.265625 L 348.882812 167.132812 L 350.984375 168.402344 L 352.527344 170.300781 L 354.730469 172.257812 L 356.515625 173.90625 L 357.910156 175.90625 L 359.816406 177.449219 L 361.300781 179.410156 L 362.882812 181.285156 L 364.875 183.605469 L 366.304688 185.609375 L 367.84375 187.527344 L 369.570312 189.273438 L 371.179688 191.125 L 372.46875 193.21875 L 373.792969 195.289062 L 375.316406 197.949219 L 376.734375 199.949219 L 377.878906 202.125 L 379.363281 204.082031 L 380.234375 206.375 L 381.378906 208.550781 L 382.902344 211.21875 L 383.851562 213.484375 L 384.542969 215.84375 L 384.65625 218.300781 L 384.691406 220.757812 L 384.660156 223.199219 L 384.179688 226.234375 L 383.863281 228.671875 L 383.640625 231.121094 L 383.28125 233.554688 L 382.519531 235.890625 L 381.878906 238.257812 L 381.285156 240.632812 L 380.90625 243.660156 L 380.375 246.054688 L 379.578125 248.375 L 379.46875 250.832031 L 379.019531 253.238281 L 378.464844 255.621094 L 377.523438 258.53125 L 376.890625 260.898438 L 376.21875 263.257812 L 375.457031 265.597656 L 374.996094 268.011719 L 374.402344 270.398438 L 373 273.132812 L 372.082031 275.410156 L 371.394531 277.769531 L 370.597656 280.09375 L 368.730469 281.585938 L 367.261719 283.550781 L 365.121094 284.652344 L 362.117188 284.230469 L 360.039062 282.957031 L 358.136719 281.410156 L 356.058594 280.097656 L 353.90625 278.921875 L 351.902344 277.507812 L 349.03125 276.457031 L 346.90625 275.285156 L 344.488281 275.011719 L 342.039062 274.960938 L 339.75 274.207031 L 338.746094 272.019531 L 338.558594 268.972656 L 337.628906 266.929688 L 335.679688 265.769531 L 334.957031 263.429688 L 333.0625 261.964844 L 330.730469 261.292969 L 328.742188 258.972656 L 327.183594 257.070312 L 325.308594 255.65625 L 325.230469 253.199219 L 325.230469 250.738281 L 325.234375 248.277344 L 325.410156 245.828125 L 325.550781 242.789062 L 325.628906 240.332031 L 325.808594 237.882812 L 325.996094 235.433594 L 326.039062 232.972656 L 326.3125 230.53125 L 326.625 227.480469 L 326.695312 225.023438 L 326.742188 222.574219 L 326.625 220.121094 L 326.625 215.199219 L 326.855469 212.136719 L 327.023438 209.6875 L 327.023438 207.226562 L 327.320312 204.796875 L 327.429688 202.339844 L 327.722656 199.898438 L 327.820312 197.445312 L 327.863281 194.371094 L 328.285156 191.953125 L 328.417969 189.5 L 328.585938 187.050781 L 328.8125 184.601562 L 329.011719 182.152344 L 329.378906 179.105469 L 329.417969 176.644531 L 329.546875 174.195312 L 329.722656 171.742188 L 329.816406 169.285156 L 329.824219 166.824219 L 330.117188 163.769531 L 330.8125 161.410156 L 331.859375 159.199219 Z M 334.285156 157.429688 "/>
<path style="fill-rule:nonzero;fill:rgb(69.803922%,52.54902%,75.294118%);fill-opacity:1;stroke-width:0.75;stroke-linecap:round;stroke-linejoin:round;stroke:rgb(20%,20%,20%);stroke-opacity:1;stroke-miterlimit:10;" d="M 475.617188 157.429688 L 477.746094 158.238281 L 479.5625 159.703125 L 481.433594 161.09375 L 483.941406 162.574219 L 485.585938 164.1875 L 487.296875 165.773438 L 488.96875 167.382812 L 490.648438 169.003906 L 491.960938 170.914062 L 493.496094 173.382812 L 494.710938 175.367188 L 495.320312 177.621094 L 496.300781 179.734375 L 497.253906 181.867188 L 498.171875 184.007812 L 499.296875 186.695312 L 500.511719 188.683594 L 501.457031 190.8125 L 502.402344 192.945312 L 503.609375 194.941406 L 504.5 197.097656 L 505.738281 199.074219 L 507.40625 201.4375 L 508.550781 203.457031 L 509.777344 205.429688 L 510.996094 207.40625 L 511.480469 209.683594 L 512.019531 211.953125 L 511.65625 214.824219 L 511.40625 217.140625 L 511.101562 219.449219 L 510.851562 221.757812 L 510.054688 223.949219 L 509.410156 226.183594 L 508.3125 228.875 L 507.714844 231.132812 L 506.976562 233.34375 L 506.113281 235.496094 L 505.617188 237.773438 L 504.886719 239.984375 L 503.804688 242.050781 L 502.726562 244.75 L 501.875 246.921875 L 500.761719 248.972656 L 499.554688 250.972656 L 498.757812 253.164062 L 498.058594 255.386719 L 496.78125 258.003906 L 495.871094 260.144531 L 494.816406 262.207031 L 492.691406 262.964844 L 490.855469 264.113281 L 489.894531 266.238281 L 489.460938 269.121094 L 489.125 271.421875 L 488.984375 273.75 L 488.699219 276.0625 L 488.023438 278.277344 L 486.445312 279.945312 L 484.683594 281.472656 L 481.863281 282.171875 L 479.707031 283.054688 L 477.640625 284.128906 L 475.425781 284.652344 L 473.289062 283.839844 L 471.199219 282.972656 L 469.617188 280.625 L 470.269531 278.40625 L 471.0625 276.21875 L 471.480469 273.941406 L 471.621094 271.613281 L 471.644531 269.277344 L 471.644531 266.355469 L 471.511719 264.027344 L 471.125 261.730469 L 470.78125 259.421875 L 470.113281 257.191406 L 469.464844 254.953125 L 468.535156 252.199219 L 467.285156 250.234375 L 466.289062 248.152344 L 465.867188 245.863281 L 465.933594 243.5625 L 466.367188 241.269531 L 466.6875 238.957031 L 467.714844 236.230469 L 468.183594 233.941406 L 468.636719 231.648438 L 468.816406 229.324219 L 468.921875 226.996094 L 469.148438 224.6875 L 468.902344 221.792969 L 468.929688 219.460938 L 469.136719 217.144531 L 469.148438 214.808594 L 468.984375 212.484375 L 469.125 210.15625 L 468.8125 207.269531 L 468.648438 204.941406 L 468.640625 202.605469 L 468.292969 200.300781 L 467.984375 197.992188 L 467.875 195.664062 L 467.5 193.359375 L 467.316406 190.449219 L 467.316406 188.113281 L 467.152344 185.785156 L 466.917969 183.472656 L 466.652344 181.160156 L 466.523438 178.832031 L 466.019531 175.957031 L 465.742188 173.640625 L 466.023438 171.382812 L 466.839844 169.195312 L 468.050781 167.199219 L 469.230469 165.1875 L 470.488281 162.5625 L 471.855469 160.667969 L 473.140625 158.722656 Z M 475.617188 157.429688 "/>
<path style="fill-rule:nonzero;fill:rgb(69.803922%,52.54902%,75.294118%);fill-opacity:1;stroke-width:0.75;stroke-linecap:round;stroke-linejoin:round;stroke:rgb(20%,20%,20%);stroke-opacity:1;stroke-miterlimit:10;" d="M 85.851562 291.347656 L 87.96875 292.058594 L 89.328125 293.863281 L 90.453125 295.847656 L 91.511719 298.480469 L 92.230469 300.644531 L 92.894531 302.832031 L 93.515625 305.027344 L 94.078125 307.242188 L 94.753906 309.421875 L 95.179688 312.242188 L 95.628906 314.484375 L 96.222656 316.679688 L 96.730469 318.902344 L 97.054688 321.164062 L 97.328125 323.425781 L 98.136719 326.09375 L 98.464844 328.339844 L 99.433594 330.40625 L 100.539062 332.40625 L 101.023438 334.621094 L 101.527344 336.839844 L 102.390625 338.925781 L 103.949219 341.296875 L 104.894531 343.375 L 105.742188 345.476562 L 106.894531 347.433594 L 107.832031 349.511719 L 108.628906 351.648438 L 109.257812 354.289062 L 108.699219 356.5 L 108.496094 358.773438 L 108.125 361 L 107.292969 363.125 L 106.539062 365.28125 L 105.65625 367.984375 L 104.984375 370.132812 L 104.761719 372.40625 L 104.460938 374.667969 L 104.527344 376.949219 L 104.820312 379.210938 L 105.296875 381.445312 L 105.511719 384.289062 L 105.339844 386.566406 L 105.007812 388.824219 L 104.847656 391.101562 L 104.53125 393.355469 L 103.988281 395.570312 L 103.148438 398.292969 L 102.390625 400.441406 L 101.398438 402.476562 L 100.589844 404.613281 L 99.695312 406.714844 L 98.605469 408.726562 L 97.28125 411.226562 L 95.679688 412.484375 L 93.972656 413.902344 L 92.820312 415.757812 L 90.710938 416.621094 L 88.441406 416.816406 L 86.285156 417.574219 L 83.636719 418.570312 L 81.378906 418.398438 L 79.933594 416.667969 L 78.964844 414.605469 L 78.179688 412.476562 L 77.425781 410.328125 L 77.078125 407.507812 L 76.769531 405.253906 L 76.234375 403.035156 L 75.503906 400.898438 L 74.660156 398.773438 L 73.578125 396.777344 L 72.863281 394.0625 L 72.117188 391.933594 L 71.304688 389.804688 L 70.839844 387.570312 L 70.308594 385.351562 L 70.230469 383.070312 L 70.300781 380.214844 L 70.78125 377.984375 L 71.101562 375.722656 L 71.390625 373.460938 L 71.515625 371.179688 L 71.8125 368.921875 L 71.984375 366.644531 L 72.148438 363.796875 L 71.859375 361.539062 L 71.648438 359.265625 L 71.191406 357.03125 L 70.46875 354.875 L 69.695312 352.730469 L 68.925781 349.996094 L 67.734375 348.050781 L 66.957031 345.914062 L 66.269531 343.734375 L 66 341.472656 L 65.660156 339.214844 L 65.625 336.367188 L 65.152344 334.140625 L 65.140625 331.851562 L 65.140625 327.28125 L 64.980469 325.007812 L 65.621094 322.914062 L 67.136719 320.578125 L 69.035156 319.464844 L 70.347656 317.605469 L 71.660156 315.738281 L 72.964844 313.886719 L 74.167969 311.945312 L 75.855469 309.644531 L 76.835938 307.597656 L 77.890625 305.574219 L 79.019531 303.585938 L 80.085938 301.578125 L 80.601562 299.382812 L 81.503906 296.691406 L 82.289062 294.550781 L 83.402344 292.566406 Z M 85.851562 291.347656 "/>
<path style="fill-rule:nonzero;fill:rgb(69.803922%,52.54902%,75.294118%);fill-opacity:1;stroke-width:0.75;stroke-linecap:round;stroke-linejoin:round;stroke:rgb(20%,20%,20%);stroke-opacity:1;stroke-miterlimit:10;" d="M 209.890625 291.347656 L 212.148438 291.753906 L 214.085938 292.964844 L 215.730469 294.566406 L 217.996094 296.335938 L 219.722656 297.871094 L 221.234375 299.5625 L 222.453125 301.488281 L 223.792969 303.367188 L 224.585938 305.527344 L 225.695312 308.1875 L 226.804688 310.210938 L 227.789062 312.300781 L 228.761719 314.386719 L 229.5625 316.542969 L 230.78125 318.496094 L 231.855469 321.152344 L 232.855469 323.226562 L 234.050781 325.191406 L 234.898438 327.332031 L 236.132812 329.269531 L 236.539062 331.527344 L 237.042969 333.777344 L 237.601562 336.605469 L 238.023438 338.867188 L 238.648438 341.089844 L 239.167969 343.339844 L 239.515625 345.617188 L 240.109375 347.835938 L 240.621094 350.621094 L 241.054688 352.871094 L 241.96875 354.980469 L 242.414062 357.234375 L 243.03125 359.457031 L 243.78125 361.632812 L 244.269531 364.472656 L 244.796875 366.710938 L 245.777344 368.757812 L 245.160156 370.945312 L 244.078125 372.964844 L 242.535156 374.667969 L 241.0625 376.445312 L 239.535156 378.769531 L 238.410156 380.777344 L 237.054688 382.628906 L 235.90625 384.628906 L 234.839844 386.652344 L 233.761719 388.625 L 232.480469 391.113281 L 231.324219 393.058594 L 230.414062 395.148438 L 229.46875 397.253906 L 228.460938 399.316406 L 227.796875 401.515625 L 226.949219 404.257812 L 225.996094 406.359375 L 225.15625 408.496094 L 224.3125 410.617188 L 224.015625 412.898438 L 222.628906 414.710938 L 220.5625 415.65625 L 217.839844 416.425781 L 215.875 417.636719 L 213.796875 418.570312 L 211.867188 417.394531 L 209.90625 416.195312 L 209.289062 414.0625 L 209.285156 411.175781 L 209.292969 408.863281 L 209.460938 406.566406 L 209.195312 404.273438 L 209.042969 401.972656 L 208.691406 399.695312 L 207.671875 397.023438 L 206.285156 395.183594 L 204.929688 393.320312 L 204.304688 391.125 L 204.238281 388.820312 L 204.570312 386.542969 L 204.332031 383.6875 L 203.503906 381.542969 L 202.835938 379.335938 L 202.113281 377.144531 L 201 375.125 L 199.703125 373.308594 L 198.539062 371.316406 L 197.03125 368.867188 L 196.957031 366.566406 L 197.488281 364.320312 L 197.734375 362.027344 L 197.796875 359.722656 L 197.632812 357.421875 L 197.449219 354.542969 L 197.125 352.265625 L 196.921875 349.96875 L 196.578125 347.699219 L 196.578125 345.390625 L 196.300781 343.101562 L 196.339844 340.238281 L 196.695312 337.964844 L 197.105469 335.707031 L 197.769531 333.503906 L 198.210938 331.242188 L 198.898438 329.042969 L 199.386719 326.792969 L 199.875 323.953125 L 199.886719 321.640625 L 199.886719 319.332031 L 199.71875 317.03125 L 198.992188 314.847656 L 198.492188 312.632812 L 199.039062 309.828125 L 200.019531 307.75 L 200.742188 305.566406 L 201.40625 303.355469 L 202.46875 301.316406 L 203.691406 299.355469 L 204.984375 296.78125 L 206.339844 294.910156 L 207.609375 293 Z M 209.890625 291.347656 "/>
<path style="fill-rule:nonzero;fill:rgb(69.803922%,52.54902%,75.294118%);fill-opacity:1;stroke-width:0.75;stroke-linecap:round;stroke-linejoin:round;stroke:rgb(20%,20%,20%);stroke-opacity:1;stroke-miterlimit:10;" d="M 344.976562 291.347656 L 347.136719 291.789062 L 348.746094 293.347656 L 350.113281 295.113281 L 351.429688 297.589844 L 352.480469 299.570312 L 353.488281 301.550781 L 353.980469 303.722656 L 355.320312 305.496094 L 356.617188 307.3125 L 358.316406 309.519531 L 359.71875 311.230469 L 361.234375 312.863281 L 361.757812 315.015625 L 362.652344 317.054688 L 363.246094 319.210938 L 363.863281 321.933594 L 364.484375 324.082031 L 365.210938 326.195312 L 365.976562 328.296875 L 366.609375 330.441406 L 367.105469 332.613281 L 367.910156 334.707031 L 368.945312 337.304688 L 369.648438 339.421875 L 370.140625 341.605469 L 370.808594 343.742188 L 371.527344 345.847656 L 371.917969 348.046875 L 372.5 350.78125 L 372.546875 353.015625 L 372.355469 355.246094 L 372.164062 357.480469 L 371.863281 359.691406 L 371.714844 361.90625 L 371.347656 364.679688 L 371.34375 366.921875 L 371.375 369.152344 L 371.171875 371.382812 L 370.964844 373.613281 L 370.105469 375.675781 L 369.699219 377.882812 L 369.496094 380.671875 L 368.953125 382.832031 L 368.546875 385.035156 L 367.972656 387.183594 L 367.246094 389.300781 L 366.59375 391.445312 L 365.941406 394.152344 L 365.097656 396.230469 L 364.1875 398.28125 L 363.5 400.414062 L 363.101562 402.621094 L 362.40625 404.75 L 361.378906 407.347656 L 360.496094 409.40625 L 360.046875 411.601562 L 359.453125 413.761719 L 358.605469 415.804688 L 356.988281 417.363281 L 354.957031 418.140625 L 352.191406 418.570312 L 349.980469 418.191406 L 347.75 418.003906 L 345.5625 417.589844 L 343.523438 416.722656 L 342.035156 415.050781 L 341.105469 412.441406 L 340.730469 410.230469 L 340.519531 408 L 340.640625 405.765625 L 340.5 403.554688 L 340.699219 401.324219 L 341.414062 398.632812 L 342.003906 396.472656 L 342.347656 394.257812 L 342.042969 392.046875 L 341.570312 389.863281 L 341.355469 387.644531 L 341.359375 384.839844 L 341.707031 382.632812 L 342.1875 380.460938 L 342.066406 378.226562 L 341.515625 376.066406 L 341.125 373.863281 L 340.742188 371.65625 L 340.851562 368.859375 L 340.828125 366.613281 L 341.347656 364.453125 L 341.355469 362.210938 L 341.351562 359.964844 L 340.992188 357.753906 L 340.6875 354.972656 L 340.542969 352.738281 L 340.511719 350.492188 L 340.175781 348.28125 L 340.015625 346.046875 L 339.867188 343.8125 L 339.753906 341.015625 L 339.476562 338.796875 L 339.179688 336.578125 L 338.929688 334.359375 L 338.753906 332.128906 L 338.300781 329.933594 L 337.84375 327.742188 L 337.484375 324.972656 L 337.371094 322.742188 L 337.832031 320.546875 L 338.574219 318.441406 L 339.445312 316.375 L 340.203125 314.273438 L 340.683594 311.554688 L 340.828125 309.320312 L 340.898438 307.078125 L 341.328125 304.875 L 342 302.761719 L 342.230469 300.539062 L 342.523438 297.753906 L 342.855469 295.546875 L 343.183594 293.339844 Z M 344.976562 291.347656 "/>
<path style="fill-rule:nonzero;fill:rgb(69.803922%,52.54902%,75.294118%);fill-opacity:1;stroke-width:0.75;stroke-linecap:round;stroke-linejoin:round;stroke:rgb(20%,20%,20%);stroke-opacity:1;stroke-miterlimit:10;" d="M 495.550781 291.347656 L 497.96875 291.484375 L 499.785156 293.039062 L 501.277344 294.957031 L 502.792969 297.578125 L 503.851562 299.753906 L 504.320312 302.132812 L 504.917969 304.460938 L 504.925781 306.890625 L 505.210938 309.300781 L 505.410156 312.324219 L 505.410156 314.753906 L 505.597656 317.167969 L 506.417969 319.453125 L 506.652344 321.863281 L 507.355469 324.183594 L 507.84375 327.171875 L 508.152344 329.5625 L 508.738281 331.914062 L 508.984375 334.332031 L 509.605469 336.675781 L 509.90625 339.082031 L 510.777344 341.335938 L 511.339844 344.304688 L 511.996094 346.636719 L 512.476562 349.011719 L 513.167969 351.320312 L 513.695312 353.660156 L 514.003906 356.046875 L 514.722656 358.957031 L 515.257812 361.3125 L 516.128906 363.570312 L 517.113281 365.789062 L 518.113281 367.992188 L 519.28125 370.117188 L 520.082031 373.042969 L 520.285156 375.457031 L 520.21875 377.882812 L 520.027344 380.300781 L 519.800781 382.71875 L 519.355469 385.089844 L 518.234375 387.242188 L 516.675781 389.851562 L 515.652344 392.050781 L 514.652344 394.257812 L 513.390625 396.335938 L 512.09375 398.386719 L 510.671875 400.359375 L 509.21875 403.019531 L 508.117188 405.167969 L 506.601562 407.066406 L 505.039062 408.925781 L 503.453125 410.765625 L 501.769531 412.515625 L 499.277344 414.230469 L 497.398438 415.769531 L 495.144531 416.660156 L 493.003906 417.808594 L 490.71875 418.570312 L 488.347656 418.207031 L 486.371094 416.804688 L 483.417969 416.207031 L 481.082031 415.660156 L 478.90625 414.589844 L 476.605469 413.808594 L 474.464844 412.667969 L 472.601562 411.117188 L 471.164062 408.492188 L 471.03125 406.070312 L 470.5625 403.9375 L 470 401.574219 L 469.285156 399.265625 L 468.277344 397.058594 L 466.269531 394.800781 L 464.71875 392.96875 L 463.121094 391.144531 L 461.585938 389.257812 L 460.441406 387.128906 L 459.554688 384.867188 L 459.222656 381.859375 L 459.011719 379.4375 L 458.203125 377.15625 L 457.957031 374.742188 L 457.683594 372.332031 L 457.472656 369.933594 L 457.617188 367.511719 L 457.691406 364.476562 L 457.863281 362.058594 L 458.078125 359.644531 L 458.671875 357.292969 L 459.195312 354.929688 L 459.527344 352.527344 L 460.472656 349.652344 L 460.683594 347.238281 L 461.378906 344.910156 L 461.90625 342.539062 L 462.613281 340.214844 L 463.410156 337.929688 L 464.570312 335.128906 L 465.574219 332.917969 L 466.628906 330.734375 L 467.914062 328.671875 L 468.984375 326.503906 L 469.851562 324.238281 L 470.617188 321.945312 L 471.871094 319.1875 L 472.71875 316.914062 L 473.914062 314.8125 L 475.386719 312.882812 L 476.871094 310.960938 L 478.261719 308.96875 L 479.949219 306.457031 L 481 304.285156 L 482.421875 302.316406 L 484.054688 300.519531 L 485.3125 298.445312 L 486.683594 296.441406 L 488.691406 294.171875 L 490.363281 292.40625 L 492.511719 291.382812 Z M 495.550781 291.347656 "/>
<path style="fill-rule:nonzero;fill:rgb(69.803922%,52.54902%,75.294118%);fill-opacity:1;stroke-width:0.75;stroke-linecap:round;stroke-linejoin:round;stroke:rgb(20%,20%,20%);stroke-opacity:1;stroke-miterlimit:10;" d="M 68.960938 425.269531 L 71.1875 426.070312 L 73.210938 427.328125 L 75.199219 428.648438 L 77.605469 430.414062 L 79.390625 432.007812 L 81.175781 433.585938 L 82.949219 435.1875 L 84.503906 436.996094 L 86.058594 438.8125 L 87.984375 441.097656 L 89.238281 443.117188 L 90.261719 445.269531 L 91.402344 447.367188 L 92.617188 449.421875 L 93.519531 451.621094 L 94.589844 454.394531 L 95.332031 456.550781 L 96.640625 458.550781 L 97.445312 460.78125 L 98.222656 463.039062 L 98.902344 465.316406 L 100.09375 467.375 L 101.628906 469.90625 L 102.988281 471.867188 L 103.957031 474.039062 L 104.359375 476.398438 L 104.671875 478.746094 L 105.648438 480.882812 L 106.449219 483.757812 L 106.800781 486.109375 L 107.269531 488.433594 L 107.804688 490.738281 L 108.117188 493.085938 L 108.542969 495.421875 L 109.066406 498.359375 L 108.960938 500.742188 L 109.070312 503.125 L 109.257812 505.5 L 109.128906 507.886719 L 108.960938 510.265625 L 108.941406 512.65625 L 108.121094 515.496094 L 108.117188 517.886719 L 108.539062 520.21875 L 108.820312 522.558594 L 108.367188 524.890625 L 108.28125 527.277344 L 108.117188 530.257812 L 108.117188 532.648438 L 108.09375 535.039062 L 107.941406 537.421875 L 107.257812 539.695312 L 106.214844 541.84375 L 104.167969 543.984375 L 102.382812 545.570312 L 100.480469 547.015625 L 98.285156 547.9375 L 96.335938 549.289062 L 94.214844 550.382812 L 91.996094 551.257812 L 89.125 551.984375 L 86.742188 552.113281 L 84.390625 552.492188 L 82.011719 552.351562 L 79.726562 551.660156 L 77.410156 551.074219 L 74.453125 550.675781 L 72.074219 550.472656 L 70.027344 549.40625 L 68.40625 547.699219 L 67.269531 545.601562 L 66.496094 543.359375 L 65.925781 540.46875 L 65.925781 535.6875 L 65.589844 530.921875 L 65.5625 528.53125 L 65.417969 525.554688 L 65.421875 523.164062 L 65.421875 515.992188 L 65.507812 513.605469 L 65.433594 511.226562 L 64.984375 508.308594 L 65.277344 505.945312 L 65.394531 503.566406 L 65.417969 501.1875 L 65.421875 498.796875 L 65.53125 496.417969 L 65.398438 493.433594 L 65.421875 491.046875 L 65.292969 488.664062 L 65.25 486.273438 L 65.253906 483.882812 L 65.417969 481.5 L 65.421875 478.511719 L 65.421875 476.121094 L 65.417969 473.734375 L 65.578125 471.351562 L 65.542969 468.976562 L 65.589844 466.585938 L 65.574219 464.195312 L 65.445312 461.214844 L 65.589844 458.832031 L 65.589844 456.441406 L 65.421875 454.0625 L 65.566406 451.679688 L 65.589844 449.289062 L 65.480469 446.304688 L 65.269531 443.929688 L 65.421875 441.546875 L 65.253906 439.164062 L 65.25 436.773438 L 65.390625 434.390625 L 65.699219 431.421875 L 65.914062 429.042969 L 66.554688 426.792969 Z M 68.960938 425.269531 "/>
<path style="fill-rule:nonzero;fill:rgb(69.803922%,52.54902%,75.294118%);fill-opacity:1;stroke-width:0.75;stroke-linecap:round;stroke-linejoin:round;stroke:rgb(20%,20%,20%);stroke-opacity:1;stroke-miterlimit:10;" d="M 226.285156 425.269531 L 228.683594 425.75 L 230.375 427.597656 L 232.027344 429.460938 L 233.789062 432.058594 L 235.003906 434.242188 L 235.085938 436.75 L 234.976562 439.257812 L 234.960938 441.769531 L 235.527344 444.199219 L 236.6875 447.109375 L 237.429688 449.496094 L 238.316406 451.839844 L 239.097656 454.214844 L 239.863281 456.59375 L 240.621094 458.964844 L 241.929688 461.804688 L 242.785156 464.152344 L 243.875 466.402344 L 244.859375 468.703125 L 245.523438 471.101562 L 245.933594 473.574219 L 246.308594 476.058594 L 247.285156 479.035156 L 248.140625 481.378906 L 248.292969 483.882812 L 248.820312 486.332031 L 249.28125 488.804688 L 249.539062 491.300781 L 249.816406 494.421875 L 249.6875 496.925781 L 250.273438 499.359375 L 250.492188 501.863281 L 250.496094 504.375 L 250.496094 510.03125 L 250.472656 512.546875 L 250.328125 515.050781 L 250.207031 517.558594 L 250.039062 520.0625 L 249.761719 522.554688 L 249.1875 524.984375 L 248.210938 527.96875 L 247.332031 530.320312 L 246.253906 532.578125 L 245.066406 534.777344 L 243.328125 536.589844 L 241.835938 538.609375 L 239.558594 540.769531 L 237.914062 542.664062 L 236.121094 544.417969 L 235.050781 546.6875 L 233.808594 548.871094 L 232.308594 550.878906 L 229.5625 552.183594 L 227.082031 552.492188 L 224.628906 552.167969 L 222.167969 551.84375 L 219.664062 551.640625 L 217.15625 551.523438 L 214.660156 551.355469 L 211.546875 551.027344 L 209.058594 551.292969 L 206.570312 551.039062 L 204.09375 550.925781 L 201.839844 549.875 L 200.101562 548.058594 L 198.078125 545.675781 L 197.101562 543.382812 L 196.351562 540.984375 L 195.457031 538.648438 L 194.675781 536.273438 L 194.417969 533.78125 L 193.652344 530.746094 L 193.164062 528.28125 L 192.695312 525.8125 L 192.085938 523.375 L 191.585938 520.925781 L 191.671875 518.421875 L 192.003906 515.328125 L 191.765625 512.835938 L 191.839844 510.335938 L 191.792969 507.832031 L 191.839844 505.320312 L 191.765625 502.8125 L 192.292969 497.1875 L 192.492188 494.683594 L 192.984375 492.222656 L 193.179688 489.71875 L 193.644531 487.269531 L 193.777344 484.839844 L 193.996094 481.710938 L 194.179688 479.207031 L 194.480469 476.710938 L 194.492188 474.199219 L 194.726562 471.699219 L 195.175781 469.242188 L 195.570312 466.128906 L 195.835938 463.628906 L 196.257812 461.152344 L 196.316406 458.640625 L 196.617188 456.148438 L 196.8125 453.652344 L 196.8125 451.140625 L 196.886719 448.015625 L 197.828125 445.691406 L 199.085938 443.5625 L 200.582031 441.546875 L 201.945312 439.433594 L 203.683594 437.636719 L 205.605469 435.203125 L 207.046875 433.167969 L 209.375 432.257812 L 211.652344 431.199219 L 213.664062 429.707031 L 215.777344 428.351562 L 218.316406 426.515625 L 220.65625 425.660156 L 223.144531 425.3125 Z M 226.285156 425.269531 "/>
<path style="fill-rule:nonzero;fill:rgb(69.803922%,52.54902%,75.294118%);fill-opacity:1;stroke-width:0.75;stroke-linecap:round;stroke-linejoin:round;stroke:rgb(20%,20%,20%);stroke-opacity:1;stroke-miterlimit:10;" d="M 339.246094 425.269531 L 341.394531 426.25 L 343.644531 426.976562 L 345.886719 427.667969 L 348.34375 429.300781 L 350.46875 430.339844 L 352.644531 431.273438 L 354.242188 433.015625 L 356.089844 434.496094 L 358.003906 435.878906 L 360.09375 437.976562 L 361.914062 439.5 L 363.542969 441.222656 L 365.164062 442.9375 L 366.890625 444.550781 L 368.054688 446.609375 L 370.226562 448.609375 L 371.832031 450.355469 L 373.488281 452.054688 L 374.832031 454 L 376.054688 456.035156 L 376.417969 458.363281 L 377.285156 460.570312 L 378.140625 463.40625 L 378.691406 465.707031 L 378.898438 468.070312 L 378.90625 470.445312 L 379.042969 472.808594 L 378.746094 475.160156 L 379.089844 478.09375 L 379.792969 480.351562 L 380.015625 482.707031 L 380.199219 485.070312 L 380.199219 487.445312 L 379.992188 489.804688 L 379.683594 492.753906 L 379.960938 495.09375 L 379.839844 497.457031 L 379.78125 499.828125 L 379.644531 502.195312 L 379.644531 504.566406 L 379.761719 506.933594 L 379.40625 509.855469 L 379.09375 512.199219 L 379.226562 514.566406 L 378.75 516.886719 L 378.851562 519.25 L 378.902344 521.621094 L 378.546875 524.566406 L 377.914062 526.851562 L 376.859375 528.957031 L 376.269531 531.25 L 375.484375 533.488281 L 374.519531 535.652344 L 373.144531 538.273438 L 372.128906 540.414062 L 371.480469 542.667969 L 369.785156 544.171875 L 368.539062 546.175781 L 367.546875 548.320312 L 366.171875 550.222656 L 363.675781 551.824219 L 361.445312 552.492188 L 359.496094 551.183594 L 357.574219 549.796875 L 355.867188 548.148438 L 353.992188 546.695312 L 351.308594 545.449219 L 349.265625 544.265625 L 347.074219 543.375 L 344.863281 542.632812 L 342.746094 541.574219 L 340.96875 540 L 338.9375 537.84375 L 337.964844 535.6875 L 337.054688 533.496094 L 336.011719 531.367188 L 335.351562 529.089844 L 335.023438 526.746094 L 334.390625 523.847656 L 333.648438 521.59375 L 332.695312 519.433594 L 331.925781 517.191406 L 331.226562 514.929688 L 331.039062 512.566406 L 330.832031 510.207031 L 330.648438 507.25 L 330.632812 504.875 L 330.617188 502.574219 L 331.015625 500.273438 L 331.003906 497.898438 L 330.710938 495.542969 L 330.625 492.582031 L 330.304688 490.230469 L 330.277344 487.855469 L 330.097656 485.492188 L 330.089844 483.117188 L 330.089844 480.746094 L 329.945312 477.789062 L 329.90625 475.414062 L 329.820312 473.046875 L 329.722656 470.675781 L 329.722656 468.304688 L 329.910156 465.941406 L 330.089844 463.578125 L 330.128906 460.613281 L 330.289062 458.246094 L 330.761719 455.925781 L 330.925781 453.558594 L 331.035156 451.191406 L 331.660156 448.914062 L 332.132812 445.984375 L 332.738281 443.695312 L 333.257812 441.378906 L 333.78125 439.066406 L 334.140625 436.722656 L 334.828125 434.453125 L 335.441406 431.566406 L 336.757812 429.609375 L 337.515625 427.429688 Z M 339.246094 425.269531 "/>
</g>
</svg>
